Montserrat-Bold.ufo
<glyph name="parenleft" format="2">
  <advance width="381"/>
  <unicode hex="0028"/>
  <outline>
    <contour>
      <point x="180" y="-194" type="curve"/>
      <point x="396" y="-194" type="line"/>
      <point x="306" y="-34"/>
      <point x="268" y="113"/>
      <point x="268" y="274" type="curve" smooth="yes"/>
      <point x="268" y="435"/>
      <point x="306" y="582"/>
      <point x="396" y="742" type="curve"/>
      <point x="180" y="742" type="line"/>
      <point x="94" y="622"/>
      <point x="47" y="457"/>
      <point x="47" y="274" type="curve" smooth="yes"/>
      <point x="47" y="91"/>
      <point x="94" y="-74"/>
    </contour>
  </outline>
</glyph>
<glyph name="parenright" format="2">
  <advance width="381"/>
  <unicode hex="0029"/>
  <outline>
    <contour>
      <point x="201" y="-194" type="line"/>
      <point x="287" y="-74"/>
      <point x="334" y="91"/>
      <point x="334" y="274" type="curve" smooth="yes"/>
      <point x="334" y="457"/>
      <point x="287" y="622"/>
      <point x="201" y="742" type="curve"/>
      <point x="-15" y="742" type="line"/>
      <point x="75" y="582"/>
      <point x="113" y="435"/>
      <point x="113" y="274" type="curve" smooth="yes"/>
      <point x="113" y="113"/>
      <point x="75" y="-34"/>
      <point x="-15" y="-194" type="curve"/>
    </contour>
  </outline>
</glyph>
<glyph name="J" format="2">
  <advance width="574"/>
  <unicode hex="004A"/>
  <anchor x="288" y="700" name="top"/>
  <outline>
    <contour>
      <point x="234" y="-16" type="curve" smooth="yes"/>
      <point x="422" y="-16"/>
      <point x="523" y="78"/>
      <point x="523" y="270" type="curve" smooth="yes"/>
      <point x="523" y="700" type="line"/>
      <point x="52" y="700" type="line"/>
      <point x="52" y="522" type="line"/>
      <point x="290" y="522" type="line"/>
      <point x="290" y="256" type="line" smooth="yes"/>
      <point x="290" y="199"/>
      <point x="263" y="169"/>
      <point x="214" y="169" type="curve" smooth="yes"/>
      <point x="175" y="169"/>
      <point x="140" y="192"/>
      <point x="103" y="238" type="curve"/>
      <point x="-24" y="88" type="line"/>
      <point x="34" y="20"/>
      <point x="125" y="-16"/>
    </contour>
  </outline>
</glyph>
<glyph name="R" format="2">
  <advance width="745"/>
  <unicode hex="0052"/>
  <anchor x="379" y="0" name="bottom"/>
  <anchor x="379" y="700" name="top"/>
  <outline>
    <contour>
      <point x="57" y="0" type="line"/>
      <point x="293" y="0" type="line"/>
      <point x="293" y="273" type="line"/>
      <point x="188" y="176" type="line"/>
      <point x="394" y="176" type="line" smooth="yes"/>
      <point x="589" y="176"/>
      <point x="713" y="274"/>
      <point x="713" y="436" type="curve" smooth="yes"/>
      <point x="713" y="598"/>
      <point x="589" y="700"/>
      <point x="394" y="700" type="curve" smooth="yes"/>
      <point x="57" y="700" type="line"/>
    </contour>
    <contour>
      <point x="476" y="0" type="line"/>
      <point x="728" y="0" type="line"/>
      <point x="554" y="255" type="line"/>
      <point x="304" y="255" type="line"/>
    </contour>
    <contour>
      <point x="293" y="247" type="line"/>
      <point x="293" y="625" type="line"/>
      <point x="188" y="518" type="line"/>
      <point x="379" y="518" type="line" smooth="yes"/>
      <point x="444" y="518"/>
      <point x="475" y="487"/>
      <point x="475" y="436" type="curve" smooth="yes"/>
      <point x="475" y="385"/>
      <point x="444" y="354"/>
      <point x="379" y="354" type="curve" smooth="yes"/>
      <point x="188" y="354" type="line"/>
    </contour>
  </outline>
</glyph>
<glyph name="X" format="2">
  <advance width="762"/>
  <unicode hex="0058"/>
  <outline>
    <contour>
      <point x="-8" y="0" type="line"/>
      <point x="261" y="0" type="line"/>
      <point x="433" y="273" type="line"/>
      <point x="324" y="272" type="line"/>
      <point x="500" y="0" type="line"/>
      <point x="770" y="0" type="line"/>
      <point x="453" y="444" type="line"/>
      <point x="453" y="280" type="line"/>
      <point x="755" y="700" type="line"/>
      <point x="501" y="700" type="line"/>
      <point x="329" y="439" type="line"/>
      <point x="442" y="440" type="line"/>
      <point x="266" y="700" type="line"/>
      <point x="1" y="700" type="line"/>
      <point x="303" y="271" type="line"/>
      <point x="304" y="436" type="line"/>
    </contour>
  </outline>
</glyph>
<glyph name="bracketright" format="2">
  <advance width="410"/>
  <unicode hex="005D"/>
  <outline>
    <contour>
      <point x="353" y="-194" type="line"/>
      <point x="353" y="742" type="line"/>
      <point x="10" y="742" type="line"/>
      <point x="10" y="572" type="line"/>
      <point x="127" y="572" type="line"/>
      <point x="127" y="-24" type="line"/>
      <point x="10" y="-24" type="line"/>
      <point x="10" y="-194" type="line"/>
    </contour>
  </outline>
</glyph>
<glyph name="a" format="2">
  <advance width="639"/>
  <unicode hex="0061"/>
  <anchor x="298" y="0" name="bottom"/>
  <anchor x="591" y="0" name="ogonek"/>
  <anchor x="321" y="547" name="top"/>
  <outline>
    <contour>
      <point x="381" y="0" type="line"/>
      <point x="591" y="0" type="line"/>
      <point x="591" y="294" type="line" smooth="yes"/>
      <point x="591" y="476"/>
      <point x="483" y="557"/>
      <point x="295" y="557" type="curve" smooth="yes"/>
      <point x="210" y="557"/>
      <point x="113" y="535"/>
      <point x="49" y="495" type="curve"/>
      <point x="121" y="346" type="line"/>
      <point x="157" y="373"/>
      <point x="212" y="389"/>
      <point x="261" y="389" type="curve" smooth="yes"/>
      <point x="334" y="389"/>
      <point x="365" y="360"/>
      <point x="365" y="307" type="curve" smooth="yes"/>
      <point x="365" y="123" type="line"/>
      <point x="381" y="97" type="line"/>
    </contour>
    <contour>
      <point x="226" y="-10" type="curve" smooth="yes"/>
      <point x="320" y="-10"/>
      <point x="376" y="30"/>
      <point x="394" y="111" type="curve"/>
      <point x="365" y="178" type="line"/>
      <point x="353" y="142"/>
      <point x="325" y="126"/>
      <point x="294" y="126" type="curve" smooth="yes"/>
      <point x="260" y="126"/>
      <point x="240" y="145"/>
      <point x="240" y="170" type="curve" smooth="yes"/>
      <point x="240" y="200"/>
      <point x="261" y="216"/>
      <point x="309" y="216" type="curve" smooth="yes"/>
      <point x="387" y="216" type="line"/>
      <point x="387" y="325" type="line"/>
      <point x="273" y="325" type="line" smooth="yes"/>
      <point x="103" y="325"/>
      <point x="23" y="266"/>
      <point x="23" y="160" type="curve" smooth="yes"/>
      <point x="23" y="66"/>
      <point x="92" y="-10"/>
    </contour>
  </outline>
</glyph>
<glyph name="d" format="2">
  <advance width="705"/>
  <unicode hex="0064"/>
  <anchor x="382" y="0" name="bottom"/>
  <anchor x="492" y="640" name="center"/>
  <anchor x="728" y="742" name="topright"/>
  <outline>
    <contour>
      <point x="290" y="-10" type="curve" smooth="yes"/>
      <point x="441" y="-10"/>
      <point x="498" y="77"/>
      <point x="498" y="274" type="curve" smooth="yes"/>
      <point x="498" y="468"/>
      <point x="433" y="557"/>
      <point x="290" y="557" type="curve" smooth="yes"/>
      <point x="147" y="557"/>
      <point x="26" y="450"/>
      <point x="26" y="274" type="curve" smooth="yes"/>
      <point x="26" y="98"/>
      <point x="147" y="-10"/>
    </contour>
    <contour>
      <point x="344" y="166" type="curve" smooth="yes"/>
      <point x="294" y="166"/>
      <point x="255" y="203"/>
      <point x="255" y="274" type="curve" smooth="yes"/>
      <point x="255" y="345"/>
      <point x="294" y="381"/>
      <point x="344" y="381" type="curve" smooth="yes"/>
      <point x="394" y="381"/>
      <point x="433" y="345"/>
      <point x="433" y="274" type="curve" smooth="yes"/>
      <point x="433" y="203"/>
      <point x="394" y="166"/>
    </contour>
    <contour>
      <point x="440" y="0" type="line"/>
      <point x="655" y="0" type="line"/>
      <point x="655" y="742" type="line"/>
      <point x="429" y="742" type="line"/>
      <point x="429" y="474" type="line"/>
      <point x="439" y="274" type="line"/>
      <point x="440" y="74" type="line"/>
    </contour>
  </outline>
</glyph>
<glyph name="q" format="2">
  <advance width="700"/>
  <unicode hex="0071"/>
  <anchor x="288" y="0" name="bottom"/>
  <anchor x="339" y="547" name="top"/>
  <outline>
    <contour>
      <point x="285" y="-10" type="curve" smooth="yes"/>
      <point x="428" y="-10"/>
      <point x="493" y="79"/>
      <point x="493" y="273" type="curve" smooth="yes"/>
      <point x="493" y="470"/>
      <point x="436" y="557"/>
      <point x="285" y="557" type="curve" smooth="yes"/>
      <point x="142" y="557"/>
      <point x="21" y="449"/>
      <point x="21" y="273" type="curve" smooth="yes"/>
      <point x="21" y="97"/>
      <point x="142" y="-10"/>
    </contour>
    <contour>
      <point x="339" y="166" type="curve" smooth="yes"/>
      <point x="289" y="166"/>
      <point x="250" y="202"/>
      <point x="250" y="273" type="curve" smooth="yes"/>
      <point x="250" y="344"/>
      <point x="289" y="381"/>
      <point x="339" y="381" type="curve" smooth="yes"/>
      <point x="389" y="381"/>
      <point x="428" y="344"/>
      <point x="428" y="273" type="curve" smooth="yes"/>
      <point x="428" y="202"/>
      <point x="389" y="166"/>
    </contour>
    <contour>
      <point x="424" y="-194" type="line"/>
      <point x="650" y="-194" type="line"/>
      <point x="650" y="547" type="line"/>
      <point x="435" y="547" type="line"/>
      <point x="435" y="473" type="line"/>
      <point x="434" y="273" type="line"/>
      <point x="424" y="73" type="line"/>
    </contour>
  </outline>
</glyph>
<glyph name="v" format="2">
  <advance width="644"/>
  <unicode hex="0076"/>
  <anchor x="322" y="0" name="bottom"/>
  <anchor x="322" y="547" name="top"/>
  <outline>
    <contour>
      <point x="205" y="0" type="line"/>
      <point x="439" y="0" type="line"/>
      <point x="659" y="547" type="line"/>
      <point x="445" y="547" type="line"/>
      <point x="267" y="103" type="line"/>
      <point x="384" y="103" type="line"/>
      <point x="217" y="547" type="line"/>
      <point x="-15" y="547" type="line"/>
    </contour>
  </outline>
</glyph>
<glyph name="braceleft" format="2">
  <advance width="438"/>
  <unicode hex="007B"/>
  <outline>
    <contour>
      <point x="354" y="-194" type="curve" smooth="yes"/>
      <point x="428" y="-194" type="line"/>
      <point x="428" y="-24" type="line"/>
      <point x="418" y="-24" type="line" smooth="yes"/>
      <point x="371" y="-24"/>
      <point x="347" y="1"/>
      <point x="347" y="45" type="curve" smooth="yes"/>
      <point x="347" y="140" type="line" smooth="yes"/>
      <point x="347" y="250"/>
      <point x="300" y="278"/>
      <point x="192" y="286" type="curve"/>
      <point x="192" y="262" type="line"/>
      <point x="300" y="270"/>
      <point x="347" y="298"/>
      <point x="347" y="408" type="curve" smooth="yes"/>
      <point x="347" y="503" type="line" smooth="yes"/>
      <point x="347" y="547"/>
      <point x="371" y="572"/>
      <point x="418" y="572" type="curve" smooth="yes"/>
      <point x="428" y="572" type="line"/>
      <point x="428" y="742" type="line"/>
      <point x="354" y="742" type="line" smooth="yes"/>
      <point x="199" y="742"/>
      <point x="121" y="664"/>
      <point x="121" y="529" type="curve" smooth="yes"/>
      <point x="121" y="403" type="line" smooth="yes"/>
      <point x="121" y="373"/>
      <point x="103" y="359"/>
      <point x="78" y="359" type="curve" smooth="yes"/>
      <point x="45" y="359" type="line"/>
      <point x="45" y="189" type="line"/>
      <point x="78" y="189" type="line" smooth="yes"/>
      <point x="103" y="189"/>
      <point x="121" y="175"/>
      <point x="121" y="145" type="curve" smooth="yes"/>
      <point x="121" y="19" type="line" smooth="yes"/>
      <point x="121" y="-116"/>
      <point x="199" y="-194"/>
    </contour>
  </outline>
</glyph>
<glyph name="section" format="2">
  <advance width="549"/>
  <unicode hex="00A7"/>
  <outline>
    <contour>
      <point x="394" y="145" type="line"/>
      <point x="484" y="177"/>
      <point x="526" y="241"/>
      <point x="526" y="308" type="curve" smooth="yes"/>
      <point x="526" y="521"/>
      <point x="236" y="461"/>
      <point x="236" y="523" type="curve" smooth="yes"/>
      <point x="236" y="541"/>
      <point x="250" y="556"/>
      <point x="308" y="556" type="curve" smooth="yes"/>
      <point x="362" y="556"/>
      <point x="418" y="547"/>
      <point x="474" y="516" type="curve"/>
      <point x="536" y="665" type="line"/>
      <point x="480" y="697"/>
      <point x="375" y="710"/>
      <point x="318" y="710" type="curve" smooth="yes"/>
      <point x="125" y="710"/>
      <point x="38" y="624"/>
      <point x="38" y="515" type="curve" smooth="yes"/>
      <point x="38" y="304"/>
      <point x="331" y="373"/>
      <point x="331" y="299" type="curve" smooth="yes"/>
      <point x="331" y="278"/>
      <point x="315" y="257"/>
      <point x="287" y="247" type="curve"/>
    </contour>
    <contour>
      <point x="257" y="-110" type="curve" smooth="yes"/>
      <point x="425" y="-110"/>
      <point x="508" y="-24"/>
      <point x="508" y="85" type="curve" smooth="yes"/>
      <point x="508" y="297"/>
      <point x="214" y="228"/>
      <point x="214" y="302" type="curve" smooth="yes"/>
      <point x="214" y="323"/>
      <point x="230" y="344"/>
      <point x="258" y="354" type="curve"/>
      <point x="151" y="456" type="line"/>
      <point x="61" y="424"/>
      <point x="19" y="360"/>
      <point x="19" y="283" type="curve" smooth="yes"/>
      <point x="19" y="80"/>
      <point x="310" y="150"/>
      <point x="310" y="77" type="curve" smooth="yes"/>
      <point x="310" y="59"/>
      <point x="295" y="44"/>
      <point x="255" y="44" type="curve" smooth="yes"/>
      <point x="204" y="44"/>
      <point x="130" y="62"/>
      <point x="78" y="93" type="curve"/>
      <point x="16" y="-56" type="line"/>
      <point x="72" y="-88"/>
      <point x="170" y="-110"/>
    </contour>
  </outline>
</glyph>
<glyph name="registered" format="2">
  <advance width="764"/>
  <unicode hex="00AE"/>
  <outline>
    <contour>
      <point x="381" y="-3" type="curve" smooth="yes"/>
      <point x="580" y="-3"/>
      <point x="735" y="153"/>
      <point x="735" y="352" type="curve" smooth="yes"/>
      <point x="735" y="551"/>
      <point x="584" y="703"/>
      <point x="383" y="703" type="curve" smooth="yes"/>
      <point x="182" y="703"/>
      <point x="29" y="547"/>
      <point x="29" y="350" type="curve" smooth="yes"/>
      <point x="29" y="153"/>
      <point x="182" y="-3"/>
    </contour>
    <contour>
      <point x="445" y="162" type="line"/>
      <point x="591" y="162" type="line"/>
      <point x="499" y="304" type="line"/>
      <point x="353" y="304" type="line"/>
    </contour>
    <contour>
      <point x="381" y="85" type="curve" smooth="yes"/>
      <point x="231" y="85"/>
      <point x="123" y="200"/>
      <point x="123" y="350" type="curve" smooth="yes"/>
      <point x="123" y="500"/>
      <point x="231" y="615"/>
      <point x="383" y="615" type="curve" smooth="yes"/>
      <point x="535" y="615"/>
      <point x="641" y="503"/>
      <point x="641" y="352" type="curve" smooth="yes"/>
      <point x="641" y="201"/>
      <point x="531" y="85"/>
    </contour>
    <contour>
      <point x="216" y="162" type="line"/>
      <point x="360" y="162" type="line"/>
      <point x="360" y="258" type="line"/>
      <point x="395" y="258" type="line" smooth="yes"/>
      <point x="507" y="258"/>
      <point x="572" y="305"/>
      <point x="572" y="398" type="curve" smooth="yes"/>
      <point x="572" y="483"/>
      <point x="507" y="538"/>
      <point x="395" y="538" type="curve" smooth="yes"/>
      <point x="216" y="538" type="line"/>
    </contour>
    <contour>
      <point x="360" y="357" type="line"/>
      <point x="360" y="439" type="line"/>
      <point x="386" y="439" type="line" smooth="yes"/>
      <point x="413" y="439"/>
      <point x="428" y="423"/>
      <point x="428" y="398" type="curve" smooth="yes"/>
      <point x="428" y="373"/>
      <point x="413" y="357"/>
      <point x="386" y="357" type="curve" smooth="yes"/>
    </contour>
  </outline>
</glyph>
<glyph name="eth" format="2">
  <advance width="676"/>
  <unicode hex="00F0"/>
  <outline>
    <contour>
      <point x="310" y="-16" type="curve" smooth="yes"/>
      <point x="517" y="-16"/>
      <point x="655" y="114"/>
      <point x="655" y="338" type="curve" smooth="yes"/>
      <point x="655" y="615"/>
      <point x="495" y="758"/>
      <point x="232" y="758" type="curve" smooth="yes"/>
      <point x="175" y="758"/>
      <point x="128" y="752"/>
      <point x="76" y="741" type="curve"/>
      <point x="97" y="578" type="line"/>
      <point x="137" y="591"/>
      <point x="182" y="596"/>
      <point x="218" y="596" type="curve" smooth="yes"/>
      <point x="353" y="596"/>
      <point x="416" y="527"/>
      <point x="416" y="387" type="curve" smooth="yes"/>
      <point x="416" y="347"/>
      <point x="416" y="328"/>
      <point x="416" y="308" type="curve"/>
      <point x="470" y="345" type="line"/>
      <point x="431" y="414"/>
      <point x="369" y="453"/>
      <point x="268" y="453" type="curve" smooth="yes"/>
      <point x="133" y="453"/>
      <point x="21" y="364"/>
      <point x="21" y="229" type="curve" smooth="yes"/>
      <point x="21" y="81"/>
      <point x="148" y="-16"/>
    </contour>
    <contour>
      <point x="328" y="147" type="curve" smooth="yes"/>
      <point x="285" y="147"/>
      <point x="251" y="174"/>
      <point x="251" y="218" type="curve" smooth="yes"/>
      <point x="251" y="262"/>
      <point x="285" y="290"/>
      <point x="328" y="290" type="curve" smooth="yes"/>
      <point x="371" y="290"/>
      <point x="405" y="262"/>
      <point x="405" y="218" type="curve" smooth="yes"/>
      <point x="405" y="174"/>
      <point x="371" y="147"/>
    </contour>
    <contour>
      <point x="144" y="450" type="line"/>
      <point x="631" y="627" type="line"/>
      <point x="596" y="718" type="line"/>
      <point x="109" y="541" type="line"/>
    </contour>
  </outline>
</glyph>
<glyph name="thorn" format="2">
  <advance width="700"/>
  <unicode hex="00FE"/>
  <anchor x="412" y="0" name="bottom"/>
  <anchor x="412" y="547" name="top"/>
  <outline>
    <contour>
      <point x="415" y="-10" type="curve" smooth="yes"/>
      <point x="558" y="-10"/>
      <point x="679" y="97"/>
      <point x="679" y="273" type="curve" smooth="yes"/>
      <point x="679" y="449"/>
      <point x="558" y="557"/>
      <point x="415" y="557" type="curve" smooth="yes"/>
      <point x="264" y="557"/>
      <point x="207" y="470"/>
      <point x="207" y="273" type="curve" smooth="yes"/>
      <point x="207" y="79"/>
      <point x="272" y="-10"/>
    </contour>
    <contour>
      <point x="50" y="-194" type="line"/>
      <point x="276" y="-194" type="line"/>
      <point x="276" y="73" type="line"/>
      <point x="266" y="273" type="line"/>
      <point x="276" y="473" type="line"/>
      <point x="276" y="742" type="line"/>
      <point x="50" y="742" type="line"/>
    </contour>
    <contour>
      <point x="361" y="166" type="curve" smooth="yes"/>
      <point x="311" y="166"/>
      <point x="272" y="202"/>
      <point x="272" y="273" type="curve" smooth="yes"/>
      <point x="272" y="344"/>
      <point x="311" y="381"/>
      <point x="361" y="381" type="curve" smooth="yes"/>
      <point x="411" y="381"/>
      <point x="450" y="344"/>
      <point x="450" y="273" type="curve" smooth="yes"/>
      <point x="450" y="202"/>
      <point x="411" y="166"/>
    </contour>
  </outline>
</glyph>
<glyph name="Schwa" format="2">
  <advance width="818"/>
  <unicode hex="018F"/>
  <anchor x="409" y="0" name="bottom"/>
  <anchor x="409" y="700" name="top"/>
  <outline>
    <contour>
      <point x="409" y="-16" type="curve" smooth="yes"/>
      <point x="628" y="-16"/>
      <point x="789" y="133"/>
      <point x="789" y="350" type="curve" smooth="yes"/>
      <point x="789" y="565"/>
      <point x="624" y="716"/>
      <point x="389" y="716" type="curve" smooth="yes"/>
      <point x="262" y="716"/>
      <point x="135" y="658"/>
      <point x="69" y="586" type="curve"/>
      <point x="208" y="443" type="line"/>
      <point x="251" y="495"/>
      <point x="332" y="525"/>
      <point x="387" y="525" type="curve" smooth="yes"/>
      <point x="485" y="525"/>
      <point x="551" y="457"/>
      <point x="551" y="360" type="curve" smooth="yes"/>
      <point x="551" y="310" type="line" smooth="yes"/>
      <point x="551" y="215"/>
      <point x="503" y="157"/>
      <point x="409" y="157" type="curve" smooth="yes"/>
      <point x="315" y="157"/>
      <point x="267" y="215"/>
      <point x="267" y="310" type="curve"/>
      <point x="191" y="268" type="line"/>
      <point x="576" y="268" type="line"/>
      <point x="576" y="398" type="line"/>
      <point x="29" y="398" type="line"/>
      <point x="29" y="360" type="line" smooth="yes"/>
      <point x="29" y="133"/>
      <point x="184" y="-16"/>
    </contour>
  </outline>
</glyph>
<glyph name="florin" format="2">
  <advance width="520"/>
  <unicode hex="0192"/>
  <outline>
    <contour>
      <point x="42" y="-204" type="curve" smooth="yes"/>
      <point x="193" y="-204"/>
      <point x="291" y="-114"/>
      <point x="309" y="28" type="curve" smooth="yes"/>
      <point x="355" y="399" type="line"/>
      <point x="359" y="492" type="line"/>
      <point x="362" y="518" type="line" smooth="yes"/>
      <point x="367" y="562"/>
      <point x="392" y="581"/>
      <point x="424" y="581" type="curve" smooth="yes"/>
      <point x="442" y="581"/>
      <point x="459" y="575"/>
      <point x="474" y="568" type="curve"/>
      <point x="547" y="725" type="line"/>
      <point x="516" y="743"/>
      <point x="464" y="752"/>
      <point x="416" y="752" type="curve" smooth="yes"/>
      <point x="260" y="752"/>
      <point x="161" y="662"/>
      <point x="144" y="520" type="curve" smooth="yes"/>
      <point x="84" y="30" type="line" smooth="yes"/>
      <point x="79" y="-14"/>
      <point x="56" y="-33"/>
      <point x="29" y="-33" type="curve" smooth="yes"/>
      <point x="11" y="-33"/>
      <point x="-6" y="-28"/>
      <point x="-21" y="-20" type="curve"/>
      <point x="-94" y="-177" type="line"/>
      <point x="-61" y="-195"/>
      <point x="-11" y="-204"/>
    </contour>
    <contour>
      <point x="48" y="352" type="line"/>
      <point x="461" y="352" type="line"/>
      <point x="481" y="517" type="line"/>
      <point x="68" y="517" type="line"/>
    </contour>
  </outline>
</glyph>
<glyph name="Oogonek" format="2">
  <advance width="848"/>
  <unicode hex="01EA"/>
  <anchor x="424" y="700" name="top"/>
  <outline>
    <contour>
      <point x="459" y="-240" type="curve" smooth="yes"/>
      <point x="502" y="-240"/>
      <point x="548" y="-230"/>
      <point x="572" y="-217" type="curve"/>
      <point x="545" y="-124" type="line"/>
      <point x="530" y="-131"/>
      <point x="508" y="-138"/>
      <point x="486" y="-138" type="curve" smooth="yes"/>
      <point x="449" y="-138"/>
      <point x="433" y="-120"/>
      <point x="433" y="-97" type="curve" smooth="yes"/>
      <point x="433" y="-64"/>
      <point x="463" y="-29"/>
      <point x="564" y="5" type="curve" smooth="yes"/>
      <point x="710" y="54"/>
      <point x="819" y="178"/>
      <point x="819" y="350" type="curve" smooth="yes"/>
      <point x="819" y="562"/>
      <point x="652" y="716"/>
      <point x="424" y="716" type="curve" smooth="yes"/>
      <point x="196" y="716"/>
      <point x="29" y="562"/>
      <point x="29" y="350" type="curve" smooth="yes"/>
      <point x="29" y="138"/>
      <point x="196" y="-16"/>
      <point x="424" y="-16" type="curve" smooth="yes"/>
      <point x="439" y="-16"/>
      <point x="455" y="-15"/>
      <point x="480" y="-13" type="curve"/>
      <point x="468" y="49" type="line"/>
      <point x="362" y="16"/>
      <point x="301" y="-43"/>
      <point x="301" y="-117" type="curve" smooth="yes"/>
      <point x="301" y="-192"/>
      <point x="359" y="-240"/>
    </contour>
    <contour>
      <point x="424" y="175" type="curve" smooth="yes"/>
      <point x="337" y="175"/>
      <point x="267" y="241"/>
      <point x="267" y="350" type="curve" smooth="yes"/>
      <point x="267" y="459"/>
      <point x="337" y="525"/>
      <point x="424" y="525" type="curve" smooth="yes"/>
      <point x="511" y="525"/>
      <point x="581" y="459"/>
      <point x="581" y="350" type="curve" smooth="yes"/>
      <point x="581" y="241"/>
      <point x="511" y="175"/>
    </contour>
  </outline>
</glyph>
<glyph name="verticallinemod" format="2">
  <advance width="202"/>
  <unicode hex="02C8"/>
  <outline>
    <contour>
      <point x="29" y="497" type="line"/>
      <point x="173" y="497" type="line"/>
      <point x="173" y="701" type="line"/>
      <point x="29" y="701" type="line"/>
    </contour>
  </outline>
</glyph>
<glyph name="acutecomb" format="2">
  <unicode hex="0301"/>
  <anchor x="300" y="547" name="_top"/>
  <anchor x="300" y="760" name="top"/>
  <outline>
    <contour>
      <point x="195" y="607" type="line"/>
      <point x="345" y="607" type="line"/>
      <point x="542" y="767" type="line"/>
      <point x="327" y="767" type="line"/>
    </contour>
  </outline>
</glyph>
<glyph name="circumflexcomb" format="2">
  <unicode hex="0302"/>
  <anchor x="300" y="547" name="_top"/>
  <anchor x="300" y="750" name="top"/>
  <outline>
    <contour>
      <point x="76" y="607" type="line"/>
      <point x="216" y="607" type="line"/>
      <point x="358" y="737" type="line"/>
      <point x="242" y="737" type="line"/>
      <point x="384" y="607" type="line"/>
      <point x="524" y="607" type="line"/>
      <point x="396" y="767" type="line"/>
      <point x="204" y="767" type="line"/>
    </contour>
  </outline>
</glyph>
<glyph name="caroncomb" format="2">
  <unicode hex="030C"/>
  <anchor x="300" y="547" name="_top"/>
  <anchor x="300" y="750" name="top"/>
  <outline>
    <contour>
      <point x="204" y="607" type="line"/>
      <point x="396" y="607" type="line"/>
      <point x="524" y="767" type="line"/>
      <point x="384" y="767" type="line"/>
      <point x="242" y="637" type="line"/>
      <point x="358" y="637" type="line"/>
      <point x="216" y="767" type="line"/>
      <point x="76" y="767" type="line"/>
    </contour>
  </outline>
</glyph>
<glyph name="commaaccentcomb" format="2">
  <unicode hex="0326"/>
  <anchor x="300" y="0" name="_bottom"/>
  <anchor x="300" y="-191" name="bottom"/>
  <outline>
    <contour>
      <point x="227" y="-270" type="line"/>
      <point x="326" y="-270" type="line"/>
      <point x="365" y="-205" type="line" smooth="yes"/>
      <point x="386" y="-169"/>
      <point x="390" y="-144"/>
      <point x="390" y="-125" type="curve" smooth="yes"/>
      <point x="390" y="-80"/>
      <point x="356" y="-50"/>
      <point x="300" y="-50" type="curve" smooth="yes"/>
      <point x="244" y="-50"/>
      <point x="210" y="-80"/>
      <point x="210" y="-125" type="curve" smooth="yes"/>
      <point x="210" y="-171"/>
      <point x="240" y="-198"/>
      <point x="300" y="-198" type="curve"/>
      <point x="275" y="-125" type="line"/>
    </contour>
  </outline>
</glyph>
<glyph name="I-cy" format="2">
  <advance width="356"/>
  <unicode hex="0406"/>
  <anchor x="180" y="0" name="bottom"/>
  <anchor x="294" y="0" name="ogonek"/>
  <anchor x="180" y="700" name="top"/>
  <anchor x="-4" y="700" name="topleft"/>
  <outline>
    <contour>
      <point x="62" y="0" type="line"/>
      <point x="294" y="0" type="line"/>
      <point x="294" y="700" type="line"/>
      <point x="62" y="700" type="line"/>
    </contour>
  </outline>
</glyph>
<glyph name="Tshe-cy" format="2">
  <advance width="874"/>
  <unicode hex="040B"/>
  <outline>
    <contour>
      <point x="221" y="0" type="line"/>
      <point x="453" y="0" type="line"/>
      <point x="453" y="568" type="line"/>
      <point x="402" y="517" type="line"/>
      <point x="683" y="517" type="line"/>
      <point x="683" y="700" type="line"/>
      <point x="16" y="700" type="line"/>
      <point x="16" y="517" type="line"/>
      <point x="272" y="517" type="line"/>
      <point x="221" y="568" type="line"/>
    </contour>
    <contour>
      <point x="426" y="408" type="curve"/>
      <point x="432" y="212" type="line"/>
      <point x="467" y="231"/>
      <point x="500" y="241"/>
      <point x="529" y="241" type="curve" smooth="yes"/>
      <point x="581" y="241"/>
      <point x="617" y="207"/>
      <point x="617" y="130" type="curve" smooth="yes"/>
      <point x="617" y="0" type="line"/>
      <point x="849" y="0" type="line"/>
      <point x="849" y="159" type="line" smooth="yes"/>
      <point x="849" y="346"/>
      <point x="746" y="431"/>
      <point x="586" y="431" type="curve" smooth="yes"/>
      <point x="537" y="431"/>
      <point x="484" y="423"/>
    </contour>
  </outline>
</glyph>
<glyph name="De-cy" format="2">
  <advance width="864"/>
  <unicode hex="0414"/>
  <outline>
    <contour>
      <point x="523" y="100" type="line"/>
      <point x="755" y="100" type="line"/>
      <point x="755" y="700" type="line"/>
      <point x="163" y="700" type="line"/>
      <point x="155" y="487" type="line"/>
      <point x="147" y="309"/>
      <point x="124" y="183"/>
      <point x="37" y="183" type="curve"/>
      <point x="286" y="155" type="line"/>
      <point x="337" y="208"/>
      <point x="354" y="321"/>
      <point x="360" y="467" type="curve" smooth="yes"/>
      <point x="362" y="517" type="line"/>
      <point x="523" y="517" type="line"/>
    </contour>
    <contour>
      <point x="17" y="-137" type="line"/>
      <point x="233" y="-137" type="line"/>
      <point x="233" y="0" type="line"/>
      <point x="631" y="0" type="line"/>
      <point x="631" y="-137" type="line"/>
      <point x="847" y="-137" type="line"/>
      <point x="847" y="183" type="line"/>
      <point x="17" y="183" type="line"/>
    </contour>
  </outline>
</glyph>
<glyph name="Ha-cy" format="2">
  <advance width="789"/>
  <unicode hex="0425"/>
  <anchor x="508" y="0" name="bottomleft"/>
  <outline>
    <contour>
      <point x="18" y="701" type="line"/>
      <point x="249" y="356" type="line"/>
      <point x="3" y="0" type="line"/>
      <point x="274" y="0" type="line"/>
      <point x="390" y="181" type="line"/>
      <point x="508" y="0" type="line"/>
      <point x="786" y="0" type="line"/>
      <point x="538" y="367" type="line"/>
      <point x="765" y="701" type="line"/>
      <point x="492" y="701" type="line"/>
      <point x="390" y="536" type="line"/>
      <point x="288" y="701" type="line"/>
    </contour>
  </outline>
</glyph>
<glyph name="ii-cy" format="2">
  <advance width="728"/>
  <unicode hex="0438"/>
  <anchor x="450" y="0" name="bottomleft"/>
  <anchor x="674" y="0" name="bottomright"/>
  <anchor x="349" y="547" name="top"/>
  <outline>
    <contour>
      <point x="53" y="0" type="line"/>
      <point x="262" y="0" type="line"/>
      <point x="450" y="248" type="line"/>
      <point x="450" y="0" type="line"/>
      <point x="675" y="0" type="line"/>
      <point x="675" y="547" type="line"/>
      <point x="467" y="547" type="line"/>
      <point x="278" y="300" type="line"/>
      <point x="278" y="547" type="line"/>
      <point x="53" y="547" type="line"/>
    </contour>
  </outline>
</glyph>
<glyph name="e-cy" format="2">
  <advance width="610"/>
  <unicode hex="0454"/>
  <anchor x="315" y="0" name="bottom"/>
  <outline>
    <contour>
      <point x="417" y="346" type="line"/>
      <point x="155" y="346" type="line"/>
      <point x="155" y="199" type="line"/>
      <point x="417" y="199" type="line"/>
    </contour>
    <contour>
      <point x="338" y="-14" type="curve" smooth="yes"/>
      <point x="455" y="-14"/>
      <point x="547" y="27"/>
      <point x="606" y="100" type="curve"/>
      <point x="477" y="215" type="line"/>
      <point x="442" y="175"/>
      <point x="401" y="151"/>
      <point x="348" y="151" type="curve" smooth="yes"/>
      <point x="271" y="151"/>
      <point x="225" y="197"/>
      <point x="225" y="273" type="curve" smooth="yes"/>
      <point x="225" y="349"/>
      <point x="271" y="395"/>
      <point x="348" y="395" type="curve" smooth="yes"/>
      <point x="401" y="395"/>
      <point x="442" y="371"/>
      <point x="477" y="331" type="curve"/>
      <point x="606" y="447" type="line"/>
      <point x="547" y="520"/>
      <point x="455" y="561"/>
      <point x="338" y="561" type="curve" smooth="yes"/>
      <point x="150" y="561"/>
      <point x="18" y="443"/>
      <point x="18" y="273" type="curve" smooth="yes"/>
      <point x="18" y="104"/>
      <point x="150" y="-14"/>
    </contour>
  </outline>
</glyph>
<glyph name="Yusbig-cy" format="2">
  <advance width="999"/>
  <unicode hex="046A"/>
  <outline>
    <contour>
      <point x="6" y="0" type="line"/>
      <point x="247" y="0" type="line"/>
      <point x="263" y="82" type="line" smooth="yes"/>
      <point x="287" y="205"/>
      <point x="322" y="241"/>
      <point x="371" y="241" type="curve" smooth="yes"/>
      <point x="394" y="241" type="line"/>
      <point x="394" y="0" type="line"/>
      <point x="604" y="0" type="line"/>
      <point x="604" y="241" type="line"/>
      <point x="631" y="241" type="line" smooth="yes"/>
      <point x="677" y="241"/>
      <point x="712" y="202"/>
      <point x="735" y="82" type="curve" smooth="yes"/>
      <point x="751" y="0" type="line"/>
      <point x="993" y="0" type="line"/>
      <point x="953" y="131" type="line" smooth="yes"/>
      <point x="891" y="335"/>
      <point x="808" y="393"/>
      <point x="692" y="393" type="curve" smooth="yes"/>
      <point x="308" y="393" type="line" smooth="yes"/>
      <point x="191" y="393"/>
      <point x="113" y="335"/>
      <point x="48" y="131" type="curve" smooth="yes"/>
    </contour>
    <contour>
      <point x="499" y="392" type="line"/>
      <point x="363" y="544" type="line"/>
      <point x="638" y="544" type="line"/>
    </contour>
    <contour>
      <point x="306" y="348" type="line"/>
      <point x="689" y="348" type="line"/>
      <point x="887" y="562" type="line"/>
      <point x="887" y="700" type="line"/>
      <point x="111" y="700" type="line"/>
      <point x="111" y="562" type="line"/>
    </contour>
  </outline>
</glyph>
<glyph name="Izhitsa-cy" format="2">
  <advance width="830"/>
  <unicode hex="0474"/>
  <guideline x="469" y="716" angle="0"/>
  <outline>
    <contour>
      <point x="285" y="0" type="line"/>
      <point x="517" y="0" type="line"/>
      <point x="669" y="423" type="line" smooth="yes"/>
      <point x="695" y="496"/>
      <point x="722" y="510"/>
      <point x="794" y="491" type="curve"/>
      <point x="816" y="701" type="line"/>
      <point x="636" y="743"/>
      <point x="537" y="700"/>
      <point x="489" y="560" type="curve" smooth="yes"/>
      <point x="404" y="310" type="line"/>
      <point x="258" y="700" type="line"/>
      <point x="4" y="700" type="line"/>
    </contour>
  </outline>
</glyph>
<glyph name="Kastroke-cy" format="2">
  <advance width="789"/>
  <unicode hex="049E"/>
  <anchor x="516" y="0" name="bottomleft"/>
  <anchor x="783" y="0" name="bottomright"/>
  <anchor x="418" y="700" name="top"/>
  <outline>
    <contour>
      <point x="11" y="542" type="line"/>
      <point x="418" y="542" type="line"/>
      <point x="418" y="642" type="line"/>
      <point x="11" y="642" type="line"/>
    </contour>
    <component base="Ka-cy" xOffset="24"/>
  </outline>
</glyph>
<glyph name="haabkhasian-cy" format="2">
  <advance width="864"/>
  <unicode hex="04A9"/>
  <outline>
    <contour>
      <point x="391" y="-15" type="curve" smooth="yes"/>
      <point x="639" y="-15"/>
      <point x="829" y="137"/>
      <point x="829" y="336" type="curve" smooth="yes"/>
      <point x="829" y="478"/>
      <point x="732" y="562"/>
      <point x="578" y="562" type="curve" smooth="yes"/>
      <point x="414" y="562"/>
      <point x="316" y="465"/>
      <point x="316" y="316" type="curve" smooth="yes"/>
      <point x="316" y="66"/>
      <point x="582" y="-66"/>
      <point x="831" y="1" type="curve"/>
      <point x="823" y="144" type="line"/>
      <point x="658" y="103"/>
      <point x="509" y="158"/>
      <point x="509" y="320" type="curve" smooth="yes"/>
      <point x="509" y="377"/>
      <point x="530" y="403"/>
      <point x="575" y="403" type="curve" smooth="yes"/>
      <point x="617" y="403"/>
      <point x="636" y="381"/>
      <point x="636" y="325" type="curve" smooth="yes"/>
      <point x="636" y="205"/>
      <point x="557" y="134"/>
      <point x="430" y="134" type="curve" smooth="yes"/>
      <point x="311" y="134"/>
      <point x="247" y="196"/>
      <point x="247" y="299" type="curve" smooth="yes"/>
      <point x="247" y="361"/>
      <point x="272" y="424"/>
      <point x="316" y="482" type="curve"/>
      <point x="133" y="563" type="line"/>
      <point x="59" y="498"/>
      <point x="22" y="405"/>
      <point x="22" y="306" type="curve" smooth="yes"/>
      <point x="22" y="106"/>
      <point x="171" y="-15"/>
    </contour>
  </outline>
</glyph>
<glyph name="Tetse-cy" format="2">
  <advance width="1017"/>
  <unicode hex="04B4"/>
  <anchor x="336" y="0" name="bottom"/>
  <anchor x="336" y="315" name="center"/>
  <anchor x="336" y="700" name="top"/>
  <outline>
    <contour>
      <point x="222" y="0" type="line"/>
      <point x="454" y="0" type="line"/>
      <point x="454" y="568" type="line"/>
      <point x="403" y="517" type="line"/>
      <point x="599" y="517" type="line"/>
      <point x="599" y="700" type="line"/>
      <point x="17" y="700" type="line"/>
      <point x="17" y="517" type="line"/>
      <point x="273" y="517" type="line"/>
      <point x="222" y="568" type="line"/>
    </contour>
    <component base="Tse-cy" xOffset="160"/>
  </outline>
</glyph>
<glyph name="Cheverticalstroke-cy" format="2">
  <advance width="765"/>
  <unicode hex="04B8"/>
  <anchor x="471" y="0" name="bottomleft"/>
  <anchor x="745" y="0" name="bottomright"/>
  <anchor x="373" y="700" name="top"/>
  <outline>
    <contour>
      <point x="324" y="108" type="line"/>
      <point x="414" y="108" type="line"/>
      <point x="414" y="489" type="line"/>
      <point x="324" y="489" type="line"/>
    </contour>
    <component base="Che-cy"/>
  </outline>
</glyph>
<glyph name="cheverticalstroke-cy" format="2">
  <advance width="662"/>
  <unicode hex="04B9"/>
  <anchor x="384" y="0" name="bottomleft"/>
  <anchor x="642" y="0" name="bottomright"/>
  <anchor x="312" y="547" name="top"/>
  <outline>
    <contour>
      <point x="270" y="91" type="line"/>
      <point x="347" y="91" type="line"/>
      <point x="347" y="402" type="line"/>
      <point x="274" y="402" type="line"/>
    </contour>
    <component base="che-cy"/>
  </outline>
</glyph>
<glyph name="kahook-cy" format="2">
  <advance width="694"/>
  <unicode hex="04C4"/>
  <guideline x="689" y="361" angle="90"/>
  <outline>
    <contour>
      <point x="460" y="-206" type="curve" smooth="yes"/>
      <point x="586" y="-206"/>
      <point x="689" y="-136"/>
      <point x="689" y="2" type="curve" smooth="yes"/>
      <point x="689" y="105"/>
      <point x="611" y="202"/>
      <point x="463" y="357" type="curve"/>
      <point x="281" y="251" type="line"/>
      <point x="384" y="148"/>
      <point x="461" y="68"/>
      <point x="461" y="13" type="curve" smooth="yes"/>
      <point x="461" y="-18"/>
      <point x="445" y="-33"/>
      <point x="418" y="-33" type="curve" smooth="yes"/>
      <point x="404" y="-33"/>
      <point x="388" y="-29"/>
      <point x="370" y="-21" type="curve"/>
      <point x="316" y="-177" type="line"/>
      <point x="364" y="-196"/>
      <point x="414" y="-206"/>
    </contour>
    <contour>
      <point x="53" y="0" type="line"/>
      <point x="279" y="0" type="line"/>
      <point x="279" y="547" type="line"/>
      <point x="53" y="547" type="line"/>
    </contour>
    <contour>
      <point x="213" y="182" type="line"/>
      <point x="417" y="182" type="line"/>
      <point x="417" y="355" type="line"/>
      <point x="213" y="355" type="line"/>
    </contour>
    <contour>
      <point x="486" y="249" type="line"/>
      <point x="686" y="547" type="line"/>
      <point x="448" y="547" type="line"/>
      <point x="274" y="269" type="line"/>
    </contour>
  </outline>
</glyph>
<glyph name="Gestrokehook-cy" format="2">
  <advance width="666"/>
  <unicode hex="04FA"/>
  <guideline x="545" y="-50" angle="0"/>
  <anchor x="370" y="700" name="top"/>
  <outline>
    <contour>
      <point x="110" y="0" type="line"/>
      <point x="346" y="0" type="line"/>
      <point x="346" y="517" type="line"/>
      <point x="647" y="517" type="line"/>
      <point x="647" y="700" type="line"/>
      <point x="110" y="700" type="line"/>
    </contour>
    <contour>
      <point x="176" y="-207" type="curve" smooth="yes"/>
      <point x="308" y="-207"/>
      <point x="413" y="-128"/>
      <point x="413" y="23" type="curve" smooth="yes"/>
      <point x="413" y="127" type="line"/>
      <point x="110" y="127" type="line"/>
      <point x="110" y="0" type="line"/>
      <point x="253" y="0" type="line"/>
      <point x="188" y="42" type="line"/>
      <point x="188" y="25" type="line"/>
      <point x="188" y="-21"/>
      <point x="166" y="-46"/>
      <point x="124" y="-46" type="curve" smooth="yes"/>
      <point x="111" y="-46"/>
      <point x="95" y="-43"/>
      <point x="77" y="-36" type="curve"/>
      <point x="29" y="-177" type="line"/>
      <point x="79" y="-197"/>
      <point x="129" y="-207"/>
    </contour>
    <contour>
      <point x="10" y="253" type="line"/>
      <point x="595" y="253" type="line"/>
      <point x="595" y="383" type="line"/>
      <point x="10" y="383" type="line"/>
    </contour>
  </outline>
</glyph>
<glyph name="elhook-cy" format="2">
  <advance width="697"/>
  <unicode hex="0513"/>
  <anchor x="413" y="0" name="bottomleft"/>
  <outline>
    <contour>
      <point x="402" y="-204" type="curve" smooth="yes"/>
      <point x="557" y="-204"/>
      <point x="644" y="-111"/>
      <point x="644" y="30" type="curve" smooth="yes"/>
      <point x="644" y="547" type="line"/>
      <point x="121" y="547" type="line"/>
      <point x="113" y="309" type="line" smooth="yes"/>
      <point x="110" y="227"/>
      <point x="101" y="181"/>
      <point x="43" y="181" type="curve" smooth="yes"/>
      <point x="36" y="181"/>
      <point x="28" y="182"/>
      <point x="20" y="183" type="curve"/>
      <point x="11" y="0" type="line"/>
      <point x="51" y="-10"/>
      <point x="86" y="-15"/>
      <point x="116" y="-15" type="curve" smooth="yes"/>
      <point x="265" y="-15"/>
      <point x="303" y="102"/>
      <point x="311" y="300" type="curve" smooth="yes"/>
      <point x="316" y="421" type="line"/>
      <point x="270" y="371" type="line"/>
      <point x="467" y="371" type="line"/>
      <point x="418" y="418" type="line"/>
      <point x="418" y="30" type="line" smooth="yes"/>
      <point x="418" y="-15"/>
      <point x="399" y="-34"/>
      <point x="369" y="-34" type="curve" smooth="yes"/>
      <point x="354" y="-34"/>
      <point x="335" y="-29"/>
      <point x="320" y="-21" type="curve"/>
      <point x="266" y="-177" type="line"/>
      <point x="301" y="-195"/>
      <point x="353" y="-204"/>
    </contour>
  </outline>
</glyph>
<glyph name="we-cy" format="2">
  <advance width="1010"/>
  <unicode hex="051D"/>
  <anchor x="505" y="0" name="bottom"/>
  <anchor x="505" y="547" name="top"/>
  <outline>
    <contour>
      <point x="191" y="0" type="line"/>
      <point x="425" y="0" type="line"/>
      <point x="537" y="352" type="line"/>
      <point x="477" y="352" type="line"/>
      <point x="585" y="0" type="line"/>
      <point x="819" y="0" type="line"/>
      <point x="1011" y="547" type="line"/>
      <point x="800" y="547" type="line"/>
      <point x="646" y="103" type="line"/>
      <point x="758" y="103" type="line"/>
      <point x="615" y="547" type="line"/>
      <point x="410" y="547" type="line"/>
      <point x="256" y="103" type="line"/>
      <point x="369" y="103" type="line"/>
      <point x="226" y="547" type="line"/>
      <point x="-1" y="547" type="line"/>
    </contour>
  </outline>
</glyph>
<glyph name="Eldescender-cy" format="2">
  <advance width="852"/>
  <unicode hex="052E"/>
  <anchor x="513" y="0" name="#exit"/>
  <anchor x="513" y="0" name="bottomleft"/>
  <outline>
    <contour>
      <point x="114" y="-13" type="curve" smooth="yes"/>
      <point x="307" y="-13"/>
      <point x="343" y="166"/>
      <point x="351" y="436" type="curve" smooth="yes"/>
      <point x="355" y="570" type="line"/>
      <point x="309" y="517" type="line"/>
      <point x="564" y="517" type="line"/>
      <point x="513" y="567" type="line"/>
      <point x="513" y="0" type="line"/>
      <point x="745" y="0" type="line"/>
      <point x="745" y="700" type="line"/>
      <point x="154" y="700" type="line"/>
      <point x="145" y="427" type="line" smooth="yes"/>
      <point x="140" y="291"/>
      <point x="130" y="186"/>
      <point x="52" y="186" type="curve" smooth="yes"/>
      <point x="44" y="186"/>
      <point x="35" y="187"/>
      <point x="26" y="189" type="curve"/>
      <point x="14" y="0" type="line"/>
      <point x="51" y="-9"/>
      <point x="85" y="-13"/>
    </contour>
    <contour>
      <point x="619" y="-137" type="line"/>
      <point x="835" y="-137" type="line"/>
      <point x="835" y="183" type="line"/>
      <point x="513" y="183" type="line"/>
      <point x="513" y="0" type="line"/>
      <point x="670" y="0" type="line"/>
      <point x="619" y="51" type="line"/>
    </contour>
  </outline>
</glyph>
<glyph name="Germandbls" format="2">
  <advance width="798"/>
  <unicode hex="1E9E"/>
  <guideline x="308" y="308" angle="49.4672"/>
  <outline>
    <contour>
      <point x="494" y="-16" type="curve" smooth="yes"/>
      <point x="647" y="-16"/>
      <point x="772" y="68"/>
      <point x="772" y="211" type="curve" smooth="yes"/>
      <point x="772" y="354"/>
      <point x="645" y="438"/>
      <point x="507" y="438" type="curve" smooth="yes"/>
      <point x="478" y="438"/>
      <point x="454" y="435"/>
      <point x="433" y="430" type="curve"/>
      <point x="521" y="308" type="line"/>
      <point x="698" y="515" type="line"/>
      <point x="698" y="650" type="line"/>
      <point x="631" y="692"/>
      <point x="519" y="716"/>
      <point x="431" y="716" type="curve" smooth="yes"/>
      <point x="187" y="716"/>
      <point x="51" y="586"/>
      <point x="51" y="379" type="curve" smooth="yes"/>
      <point x="51" y="0" type="line"/>
      <point x="287" y="0" type="line"/>
      <point x="287" y="374" type="line" smooth="yes"/>
      <point x="287" y="476"/>
      <point x="336" y="536"/>
      <point x="434" y="536" type="curve" smooth="yes"/>
      <point x="500" y="536"/>
      <point x="551" y="517"/>
      <point x="603" y="487" type="curve"/>
      <point x="588" y="635" type="line"/>
      <point x="355" y="363" type="line"/>
      <point x="395" y="268" type="line"/>
      <point x="412" y="274"/>
      <point x="434" y="278"/>
      <point x="457" y="278" type="curve" smooth="yes"/>
      <point x="509" y="278"/>
      <point x="534" y="258"/>
      <point x="534" y="221" type="curve" smooth="yes"/>
      <point x="534" y="184"/>
      <point x="509" y="164"/>
      <point x="454" y="164" type="curve" smooth="yes"/>
      <point x="427" y="164"/>
      <point x="393" y="172"/>
      <point x="369" y="183" type="curve"/>
      <point x="337" y="7" type="line"/>
      <point x="378" y="-8"/>
      <point x="428" y="-16"/>
    </contour>
  </outline>
</glyph>
<glyph name="euro" format="2">
  <advance width="835"/>
  <unicode hex="20AC"/>
  <guideline x="120" y="350" angle="90"/>
  <outline>
    <contour>
      <point x="30" y="225" type="line"/>
      <point x="572" y="225" type="line"/>
      <point x="572" y="337" type="line"/>
      <point x="30" y="337" type="line"/>
    </contour>
    <contour>
      <point x="30" y="363" type="line"/>
      <point x="572" y="363" type="line"/>
      <point x="572" y="475" type="line"/>
      <point x="30" y="475" type="line"/>
    </contour>
    <contour>
      <point x="510" y="-16" type="curve" smooth="yes"/>
      <point x="647" y="-16"/>
      <point x="755" y="34"/>
      <point x="824" y="124" type="curve"/>
      <point x="675" y="257" type="line"/>
      <point x="634" y="205"/>
      <point x="585" y="175"/>
      <point x="522" y="175" type="curve" smooth="yes"/>
      <point x="424" y="175"/>
      <point x="358" y="243"/>
      <point x="358" y="350" type="curve" smooth="yes"/>
      <point x="358" y="457"/>
      <point x="424" y="525"/>
      <point x="522" y="525" type="curve" smooth="yes"/>
      <point x="585" y="525"/>
      <point x="634" y="495"/>
      <point x="675" y="443" type="curve"/>
      <point x="824" y="576" type="line"/>
      <point x="755" y="666"/>
      <point x="647" y="716"/>
      <point x="510" y="716" type="curve" smooth="yes"/>
      <point x="285" y="716"/>
      <point x="120" y="565"/>
      <point x="120" y="350" type="curve" smooth="yes"/>
      <point x="120" y="135"/>
      <point x="285" y="-16"/>
    </contour>
  </outline>
</glyph>
<glyph name="cedi" format="2">
  <advance width="744"/>
  <unicode hex="20B5"/>
  <outline>
    <contour>
      <point x="352" y="-120" type="line"/>
      <point x="493" y="-120" type="line"/>
      <point x="493" y="820" type="line"/>
      <point x="352" y="820" type="line"/>
    </contour>
    <contour>
      <point x="419" y="-16" type="curve" smooth="yes"/>
      <point x="556" y="-16"/>
      <point x="664" y="34"/>
      <point x="733" y="124" type="curve"/>
      <point x="584" y="257" type="line"/>
      <point x="543" y="205"/>
      <point x="494" y="175"/>
      <point x="431" y="175" type="curve" smooth="yes"/>
      <point x="333" y="175"/>
      <point x="267" y="243"/>
      <point x="267" y="350" type="curve" smooth="yes"/>
      <point x="267" y="457"/>
      <point x="333" y="525"/>
      <point x="431" y="525" type="curve" smooth="yes"/>
      <point x="494" y="525"/>
      <point x="543" y="495"/>
      <point x="584" y="443" type="curve"/>
      <point x="733" y="576" type="line"/>
      <point x="664" y="666"/>
      <point x="556" y="716"/>
      <point x="419" y="716" type="curve" smooth="yes"/>
      <point x="194" y="716"/>
      <point x="29" y="565"/>
      <point x="29" y="350" type="curve" smooth="yes"/>
      <point x="29" y="135"/>
      <point x="194" y="-16"/>
    </contour>
  </outline>
</glyph>
<glyph name="bitcoin" format="2">
  <advance width="799"/>
  <unicode hex="20BF"/>
  <anchor x="397" y="0" name="bottom"/>
  <anchor x="397" y="700" name="top"/>
  <outline>
    <contour>
      <point x="205" y="82" type="line"/>
      <point x="205" y="-120" type="line"/>
      <point x="346" y="-120" type="line"/>
      <point x="346" y="82" type="line"/>
    </contour>
    <contour>
      <point x="445" y="82" type="line"/>
      <point x="445" y="-120" type="line"/>
      <point x="586" y="-120" type="line"/>
      <point x="586" y="82" type="line"/>
    </contour>
    <contour>
      <point x="346" y="623" type="line"/>
      <point x="346" y="820" type="line"/>
      <point x="205" y="820" type="line"/>
      <point x="205" y="623" type="line"/>
    </contour>
    <contour>
      <point x="586" y="623" type="line"/>
      <point x="586" y="820" type="line"/>
      <point x="445" y="820" type="line"/>
      <point x="445" y="623" type="line"/>
    </contour>
    <contour>
      <point x="72" y="0" type="line"/>
      <point x="466" y="0" type="line" smooth="yes"/>
      <point x="659" y="0"/>
      <point x="762" y="71"/>
      <point x="762" y="193" type="curve" smooth="yes"/>
      <point x="762" y="315"/>
      <point x="659" y="387"/>
      <point x="496" y="387" type="curve"/>
      <point x="476" y="333" type="line"/>
      <point x="639" y="333"/>
      <point x="729" y="411"/>
      <point x="729" y="517" type="curve" smooth="yes"/>
      <point x="729" y="623"/>
      <point x="639" y="700"/>
      <point x="446" y="700" type="curve" smooth="yes"/>
      <point x="72" y="700" type="line"/>
    </contour>
    <contour>
      <point x="304" y="165" type="line"/>
      <point x="304" y="535" type="line"/>
      <point x="414" y="535" type="line" smooth="yes"/>
      <point x="467" y="535"/>
      <point x="491" y="517"/>
      <point x="491" y="483" type="curve" smooth="yes"/>
      <point x="491" y="449"/>
      <point x="467" y="431"/>
      <point x="414" y="431" type="curve" smooth="yes"/>
      <point x="288" y="431" type="line"/>
      <point x="288" y="275" type="line"/>
      <point x="446" y="275" type="line" smooth="yes"/>
      <point x="498" y="275"/>
      <point x="524" y="256"/>
      <point x="524" y="220" type="curve" smooth="yes"/>
      <point x="524" y="184"/>
      <point x="498" y="165"/>
      <point x="446" y="165" type="curve" smooth="yes"/>
    </contour>
  </outline>
</glyph>
<glyph name="Aogonek.loclNAV" format="2">
  <advance width="806"/>
  <anchor x="403" y="0" name="bottom"/>
  <anchor x="825" y="0" name="ogonek"/>
  <anchor x="403" y="700" name="top"/>
  <anchor x="121" y="701" name="topleft"/>
  <outline>
    <contour>
      <point x="-19" y="0" type="line"/>
      <point x="221" y="0" type="line"/>
      <point x="447" y="588" type="line"/>
      <point x="355" y="588" type="line"/>
      <point x="581" y="0" type="line"/>
      <point x="825" y="0" type="line"/>
      <point x="519" y="700" type="line"/>
      <point x="287" y="700" type="line"/>
    </contour>
    <contour>
      <point x="163" y="122" type="line"/>
      <point x="605" y="122" type="line"/>
      <point x="545" y="292" type="line"/>
      <point x="223" y="292" type="line"/>
    </contour>
    <contour>
      <point x="414" y="-240" type="curve" smooth="yes"/>
      <point x="458" y="-240"/>
      <point x="504" y="-230"/>
      <point x="528" y="-217" type="curve"/>
      <point x="501" y="-124" type="line"/>
      <point x="486" y="-131"/>
      <point x="464" y="-138"/>
      <point x="442" y="-138" type="curve" smooth="yes"/>
      <point x="406" y="-138"/>
      <point x="389" y="-121"/>
      <point x="389" y="-102" type="curve" smooth="yes"/>
      <point x="389" y="-76"/>
      <point x="421" y="-48"/>
      <point x="488" y="-28" type="curve"/>
      <point x="446" y="37" type="line"/>
      <point x="326" y="9"/>
      <point x="257" y="-52"/>
      <point x="257" y="-124" type="curve" smooth="yes"/>
      <point x="257" y="-191"/>
      <point x="315" y="-240"/>
    </contour>
  </outline>
</glyph>
<glyph name="Aogonek.loclNAV.ss01" format="2">
  <advance width="792"/>
  <anchor x="396" y="0" name="bottom"/>
  <anchor x="741" y="0" name="ogonek"/>
  <anchor x="396" y="700" name="top"/>
  <anchor x="51" y="700" name="topleft"/>
  <outline>
    <contour>
      <point x="51" y="0" type="line"/>
      <point x="283" y="0" type="line"/>
      <point x="283" y="393" type="line" smooth="yes"/>
      <point x="283" y="483"/>
      <point x="330" y="525"/>
      <point x="394" y="525" type="curve" smooth="yes"/>
      <point x="458" y="525"/>
      <point x="505" y="483"/>
      <point x="505" y="393" type="curve" smooth="yes"/>
      <point x="505" y="0" type="line"/>
      <point x="741" y="0" type="line"/>
      <point x="741" y="373" type="line" smooth="yes"/>
      <point x="741" y="592"/>
      <point x="600" y="716"/>
      <point x="396" y="716" type="curve" smooth="yes"/>
      <point x="192" y="716"/>
      <point x="51" y="592"/>
      <point x="51" y="373" type="curve" smooth="yes"/>
    </contour>
    <contour>
      <point x="408" y="-240" type="curve" smooth="yes"/>
      <point x="452" y="-240"/>
      <point x="498" y="-230"/>
      <point x="522" y="-217" type="curve"/>
      <point x="495" y="-124" type="line"/>
      <point x="480" y="-131"/>
      <point x="458" y="-138"/>
      <point x="436" y="-138" type="curve" smooth="yes"/>
      <point x="400" y="-138"/>
      <point x="383" y="-121"/>
      <point x="383" y="-102" type="curve" smooth="yes"/>
      <point x="383" y="-76"/>
      <point x="415" y="-48"/>
      <point x="482" y="-28" type="curve"/>
      <point x="440" y="37" type="line"/>
      <point x="320" y="9"/>
      <point x="251" y="-52"/>
      <point x="251" y="-124" type="curve" smooth="yes"/>
      <point x="251" y="-191"/>
      <point x="309" y="-240"/>
    </contour>
    <contour>
      <point x="199" y="141" type="line"/>
      <point x="589" y="141" type="line"/>
      <point x="589" y="319" type="line"/>
      <point x="199" y="319" type="line"/>
    </contour>
  </outline>
</glyph>
<glyph name="De-cy.loclBGR" format="2">
  <advance width="885"/>
  <outline>
    <contour>
      <point x="17" y="-137" type="line"/>
      <point x="233" y="-137" type="line"/>
      <point x="233" y="0" type="line"/>
      <point x="652" y="0" type="line"/>
      <point x="652" y="-137" type="line"/>
      <point x="868" y="-137" type="line"/>
      <point x="868" y="183" type="line"/>
      <point x="17" y="183" type="line"/>
    </contour>
    <contour>
      <point x="559" y="700" type="line"/>
      <point x="327" y="700" type="line"/>
      <point x="40" y="70" type="line"/>
      <point x="273" y="70" type="line"/>
      <point x="501" y="625" type="line"/>
      <point x="370" y="625" type="line"/>
      <point x="581" y="70" type="line"/>
      <point x="835" y="70" type="line"/>
    </contour>
  </outline>
</glyph>
<glyph name="Eng.ss01" format="2">
  <advance width="794"/>
  <outline>
    <contour>
      <point x="482" y="716" type="curve" smooth="yes"/>
      <point x="370" y="716"/>
      <point x="291" y="659"/>
      <point x="250" y="563" type="curve"/>
      <point x="286" y="519" type="line"/>
      <point x="286" y="700" type="line"/>
      <point x="57" y="700" type="line"/>
      <point x="57" y="0" type="line"/>
      <point x="293" y="0" type="line"/>
      <point x="293" y="390" type="line" smooth="yes"/>
      <point x="293" y="483"/>
      <point x="342" y="525"/>
      <point x="403" y="525" type="curve" smooth="yes"/>
      <point x="466" y="525"/>
      <point x="507" y="486"/>
      <point x="507" y="398" type="curve" smooth="yes"/>
      <point x="507" y="72" type="line" smooth="yes"/>
      <point x="507" y="15"/>
      <point x="480" y="-13"/>
      <point x="431" y="-13" type="curve" smooth="yes"/>
      <point x="407" y="-13"/>
      <point x="385" y="-6"/>
      <point x="362" y="10" type="curve"/>
      <point x="254" y="-153" type="line"/>
      <point x="308" y="-189"/>
      <point x="375" y="-204"/>
      <point x="451" y="-204" type="curve" smooth="yes"/>
      <point x="639" y="-204"/>
      <point x="743" y="-110"/>
      <point x="743" y="82" type="curve" smooth="yes"/>
      <point x="743" y="405" type="line" smooth="yes"/>
      <point x="743" y="605"/>
      <point x="647" y="716"/>
    </contour>
  </outline>
</glyph>
<glyph name="Eogonek.loclNAV.ss01" format="2">
  <advance width="695"/>
  <anchor x="375" y="0" name="bottom"/>
  <anchor x="645" y="0" name="ogonek"/>
  <anchor x="375" y="700" name="top"/>
  <anchor x="-3" y="700" name="topleft"/>
  <outline>
    <contour>
      <point x="417" y="49" type="line"/>
      <point x="311" y="16"/>
      <point x="250" y="-43"/>
      <point x="250" y="-118" type="curve" smooth="yes"/>
      <point x="250" y="-192"/>
      <point x="309" y="-240"/>
      <point x="406" y="-240" type="curve" smooth="yes"/>
      <point x="451" y="-240"/>
      <point x="497" y="-230"/>
      <point x="521" y="-217" type="curve"/>
      <point x="494" y="-124" type="line"/>
      <point x="479" y="-131"/>
      <point x="457" y="-138"/>
      <point x="435" y="-138" type="curve" smooth="yes"/>
      <point x="398" y="-138"/>
      <point x="382" y="-120"/>
      <point x="382" y="-97" type="curve" smooth="yes"/>
      <point x="382" y="-61"/>
      <point x="419" y="-26"/>
      <point x="498" y="-11" type="curve" smooth="yes"/>
      <point x="577" y="4"/>
      <point x="630" y="16"/>
      <point x="689" y="46" type="curve"/>
      <point x="620" y="217" type="line"/>
      <point x="552" y="182"/>
      <point x="474" y="164"/>
      <point x="393" y="164" type="curve" smooth="yes"/>
      <point x="304" y="164"/>
      <point x="264" y="186"/>
      <point x="264" y="220" type="curve" smooth="yes"/>
      <point x="264" y="246"/>
      <point x="288" y="266"/>
      <point x="342" y="266" type="curve" smooth="yes"/>
      <point x="563" y="266" type="line"/>
      <point x="563" y="440" type="line"/>
      <point x="358" y="440" type="line" smooth="yes"/>
      <point x="334" y="440"/>
      <point x="293" y="444"/>
      <point x="293" y="481" type="curve" smooth="yes"/>
      <point x="293" y="516"/>
      <point x="331" y="536"/>
      <point x="415" y="536" type="curve" smooth="yes"/>
      <point x="477" y="536"/>
      <point x="538" y="525"/>
      <point x="605" y="498" type="curve"/>
      <point x="669" y="670" type="line"/>
      <point x="599" y="698"/>
      <point x="505" y="716"/>
      <point x="405" y="716" type="curve" smooth="yes"/>
      <point x="165" y="716"/>
      <point x="55" y="612"/>
      <point x="55" y="498" type="curve" smooth="yes"/>
      <point x="55" y="409"/>
      <point x="123" y="333"/>
      <point x="265" y="333" type="curve"/>
      <point x="260" y="385" type="line"/>
      <point x="112" y="385"/>
      <point x="26" y="305"/>
      <point x="26" y="201" type="curve" smooth="yes"/>
      <point x="26" y="75"/>
      <point x="153" y="-16"/>
      <point x="389" y="-16" type="curve" smooth="yes"/>
      <point x="414" y="-16"/>
      <point x="439" y="-15"/>
      <point x="461" y="-13" type="curve"/>
    </contour>
  </outline>
</glyph>
<glyph name="Er-cy.ss01" format="2">
  <advance width="732"/>
  <outline>
    <contour>
      <point x="48" y="0" type="line"/>
      <point x="280" y="0" type="line"/>
      <point x="280" y="404" type="line" smooth="yes"/>
      <point x="280" y="478"/>
      <point x="318" y="521"/>
      <point x="382" y="521" type="curve" smooth="yes"/>
      <point x="441" y="521"/>
      <point x="474" y="485"/>
      <point x="474" y="423" type="curve" smooth="yes"/>
      <point x="474" y="358"/>
      <point x="439" y="325"/>
      <point x="370" y="325" type="curve" smooth="yes"/>
      <point x="325" y="325"/>
      <point x="278" y="339"/>
      <point x="255" y="360" type="curve"/>
      <point x="249" y="186" type="line"/>
      <point x="312" y="166"/>
      <point x="358" y="158"/>
      <point x="410" y="158" type="curve" smooth="yes"/>
      <point x="603" y="158"/>
      <point x="711" y="258"/>
      <point x="711" y="428" type="curve" smooth="yes"/>
      <point x="711" y="608"/>
      <point x="587" y="708"/>
      <point x="377" y="708" type="curve" smooth="yes"/>
      <point x="158" y="708"/>
      <point x="48" y="599"/>
      <point x="48" y="402" type="curve" smooth="yes"/>
    </contour>
  </outline>
</glyph>
<glyph name="Iacute_J.loclNLD" format="2">
  <advance width="729"/>
  <guideline x="0" y="701" angle="90"/>
  <outline>
    <contour>
      <point x="328" y="-10" type="curve" smooth="yes"/>
      <point x="538" y="-10"/>
      <point x="678" y="111"/>
      <point x="678" y="331" type="curve" smooth="yes"/>
      <point x="678" y="700" type="line"/>
      <point x="442" y="700" type="line"/>
      <point x="442" y="318" type="line" smooth="yes"/>
      <point x="442" y="221"/>
      <point x="404" y="178"/>
      <point x="317" y="178" type="curve" smooth="yes"/>
      <point x="258" y="178"/>
      <point x="183" y="200"/>
      <point x="117" y="242" type="curve"/>
      <point x="31" y="75" type="line"/>
      <point x="104" y="23"/>
      <point x="208" y="-10"/>
    </contour>
    <contour>
      <point x="51" y="336" type="line"/>
      <point x="287" y="336" type="line"/>
      <point x="287" y="700" type="line"/>
      <point x="51" y="700" type="line"/>
    </contour>
    <contour>
      <point x="64" y="757" type="line"/>
      <point x="214" y="757" type="line"/>
      <point x="411" y="917" type="line"/>
      <point x="196" y="917" type="line"/>
    </contour>
    <contour>
      <point x="454" y="757" type="line"/>
      <point x="604" y="757" type="line"/>
      <point x="801" y="917" type="line"/>
      <point x="586" y="917" type="line"/>
    </contour>
  </outline>
</glyph>
<glyph name="J.ss01" format="2">
  <advance width="574"/>
  <anchor x="288" y="700" name="top"/>
  <outline>
    <contour>
      <point x="234" y="-116" type="curve" smooth="yes"/>
      <point x="422" y="-116"/>
      <point x="523" y="-22"/>
      <point x="523" y="170" type="curve" smooth="yes"/>
      <point x="523" y="700" type="line"/>
      <point x="52" y="700" type="line"/>
      <point x="52" y="522" type="line"/>
      <point x="290" y="522" type="line"/>
      <point x="290" y="156" type="line" smooth="yes"/>
      <point x="290" y="99"/>
      <point x="263" y="69"/>
      <point x="214" y="69" type="curve" smooth="yes"/>
      <point x="175" y="69"/>
      <point x="140" y="92"/>
      <point x="103" y="138" type="curve"/>
      <point x="-24" y="-12" type="line"/>
      <point x="34" y="-80"/>
      <point x="125" y="-116"/>
    </contour>
  </outline>
</glyph>
<glyph name="U.ss01" format="2">
  <advance width="790"/>
  <anchor x="390" y="0" name="bottom"/>
  <anchor x="733" y="0" name="ogonek"/>
  <anchor x="390" y="700" name="top"/>
  <anchor x="628" y="700" name="topright"/>
  <outline>
    <contour>
      <point x="310" y="-16" type="curve" smooth="yes"/>
      <point x="420" y="-16"/>
      <point x="499" y="41"/>
      <point x="540" y="137" type="curve"/>
      <point x="504" y="181" type="line"/>
      <point x="504" y="0" type="line"/>
      <point x="733" y="0" type="line"/>
      <point x="733" y="700" type="line"/>
      <point x="497" y="700" type="line"/>
      <point x="497" y="310" type="line" smooth="yes"/>
      <point x="497" y="217"/>
      <point x="448" y="175"/>
      <point x="389" y="175" type="curve" smooth="yes"/>
      <point x="328" y="175"/>
      <point x="287" y="214"/>
      <point x="287" y="302" type="curve" smooth="yes"/>
      <point x="287" y="700" type="line"/>
      <point x="51" y="700" type="line"/>
      <point x="51" y="295" type="line" smooth="yes"/>
      <point x="51" y="95"/>
      <point x="147" y="-16"/>
    </contour>
  </outline>
</glyph>
<glyph name="Udieresis.ss01.alt" format="2">
  <advance width="790"/>
  <outline>
    <contour>
      <point x="310" y="-16" type="curve" smooth="yes"/>
      <point x="420" y="-16"/>
      <point x="499" y="41"/>
      <point x="540" y="137" type="curve"/>
      <point x="504" y="181" type="line"/>
      <point x="504" y="0" type="line"/>
      <point x="733" y="0" type="line"/>
      <point x="733" y="700" type="line"/>
      <point x="497" y="700" type="line"/>
      <point x="497" y="310" type="line" smooth="yes"/>
      <point x="497" y="217"/>
      <point x="448" y="175"/>
      <point x="389" y="175" type="curve" smooth="yes"/>
      <point x="328" y="175"/>
      <point x="287" y="214"/>
      <point x="287" y="302" type="curve" smooth="yes"/>
      <point x="287" y="700" type="line"/>
      <point x="51" y="700" type="line"/>
      <point x="51" y="295" type="line" smooth="yes"/>
      <point x="51" y="95"/>
      <point x="147" y="-16"/>
    </contour>
    <contour>
      <point x="321" y="533" type="curve" smooth="yes"/>
      <point x="372" y="533"/>
      <point x="411" y="568"/>
      <point x="411" y="621" type="curve" smooth="yes"/>
      <point x="411" y="674"/>
      <point x="372" y="710"/>
      <point x="321" y="710" type="curve" smooth="yes"/>
      <point x="270" y="710"/>
      <point x="231" y="674"/>
      <point x="231" y="621" type="curve" smooth="yes"/>
      <point x="231" y="568"/>
      <point x="270" y="533"/>
    </contour>
    <contour>
      <point x="463" y="533" type="curve" smooth="yes"/>
      <point x="514" y="533"/>
      <point x="553" y="568"/>
      <point x="553" y="621" type="curve" smooth="yes"/>
      <point x="553" y="674"/>
      <point x="514" y="710"/>
      <point x="463" y="710" type="curve" smooth="yes"/>
      <point x="412" y="710"/>
      <point x="373" y="674"/>
      <point x="373" y="621" type="curve" smooth="yes"/>
      <point x="373" y="568"/>
      <point x="412" y="533"/>
    </contour>
  </outline>
</glyph>
<glyph name="W.ss01" format="2">
  <advance width="1223"/>
  <anchor x="612" y="0" name="bottom"/>
  <anchor x="611" y="700" name="top"/>
  <outline>
    <contour>
      <point x="394" y="-16" type="curve" smooth="yes"/>
      <point x="515" y="-16"/>
      <point x="602" y="25"/>
      <point x="654" y="94" type="curve"/>
      <point x="568" y="94" type="line"/>
      <point x="621" y="25"/>
      <point x="708" y="-16"/>
      <point x="828" y="-16" type="curve" smooth="yes"/>
      <point x="1044" y="-16"/>
      <point x="1172" y="95"/>
      <point x="1172" y="295" type="curve" smooth="yes"/>
      <point x="1172" y="700" type="line"/>
      <point x="936" y="700" type="line"/>
      <point x="936" y="302" type="line" smooth="yes"/>
      <point x="936" y="218"/>
      <point x="904" y="175"/>
      <point x="833" y="175" type="curve" smooth="yes"/>
      <point x="761" y="175"/>
      <point x="729" y="218"/>
      <point x="729" y="302" type="curve" smooth="yes"/>
      <point x="729" y="700" type="line"/>
      <point x="493" y="700" type="line"/>
      <point x="493" y="302" type="line" smooth="yes"/>
      <point x="493" y="218"/>
      <point x="462" y="175"/>
      <point x="390" y="175" type="curve" smooth="yes"/>
      <point x="319" y="175"/>
      <point x="287" y="218"/>
      <point x="287" y="302" type="curve" smooth="yes"/>
      <point x="287" y="700" type="line"/>
      <point x="51" y="700" type="line"/>
      <point x="51" y="295" type="line" smooth="yes"/>
      <point x="51" y="95"/>
      <point x="179" y="-16"/>
    </contour>
  </outline>
</glyph>
<glyph name="adieresis.sc.alt" format="2">
  <advance width="702"/>
  <outline>
    <contour>
      <point x="72" y="420" type="curve" smooth="yes"/>
      <point x="123" y="420"/>
      <point x="162" y="455"/>
      <point x="162" y="508" type="curve" smooth="yes"/>
      <point x="162" y="561"/>
      <point x="123" y="597"/>
      <point x="72" y="597" type="curve" smooth="yes"/>
      <point x="21" y="597"/>
      <point x="-18" y="561"/>
      <point x="-18" y="508" type="curve" smooth="yes"/>
      <point x="-18" y="455"/>
      <point x="21" y="420"/>
    </contour>
    <contour>
      <point x="630" y="420" type="curve" smooth="yes"/>
      <point x="681" y="420"/>
      <point x="720" y="455"/>
      <point x="720" y="508" type="curve" smooth="yes"/>
      <point x="720" y="561"/>
      <point x="681" y="597"/>
      <point x="630" y="597" type="curve" smooth="yes"/>
      <point x="579" y="597"/>
      <point x="540" y="561"/>
      <point x="540" y="508" type="curve" smooth="yes"/>
      <point x="540" y="455"/>
      <point x="579" y="420"/>
    </contour>
    <contour>
      <point x="-18" y="0" type="line"/>
      <point x="202" y="0" type="line"/>
      <point x="389" y="478" type="line"/>
      <point x="314" y="478" type="line"/>
      <point x="497" y="0" type="line"/>
      <point x="720" y="0" type="line"/>
      <point x="464" y="582" type="line"/>
      <point x="238" y="582" type="line"/>
    </contour>
    <contour>
      <point x="148" y="88" type="line"/>
      <point x="517" y="88" type="line"/>
      <point x="459" y="246" type="line"/>
      <point x="206" y="246" type="line"/>
    </contour>
  </outline>
</glyph>
<glyph name="aogonek.loclNAV.sc" format="2">
  <advance width="702"/>
  <anchor x="720" y="0" name="ogonek"/>
  <anchor x="351" y="582" name="top"/>
  <outline>
    <contour>
      <point x="360" y="-240" type="curve" smooth="yes"/>
      <point x="404" y="-240"/>
      <point x="450" y="-230"/>
      <point x="474" y="-217" type="curve"/>
      <point x="447" y="-124" type="line"/>
      <point x="432" y="-131"/>
      <point x="410" y="-138"/>
      <point x="388" y="-138" type="curve" smooth="yes"/>
      <point x="352" y="-138"/>
      <point x="335" y="-121"/>
      <point x="335" y="-102" type="curve" smooth="yes"/>
      <point x="335" y="-76"/>
      <point x="367" y="-48"/>
      <point x="434" y="-28" type="curve"/>
      <point x="392" y="37" type="line"/>
      <point x="272" y="9"/>
      <point x="203" y="-52"/>
      <point x="203" y="-124" type="curve" smooth="yes"/>
      <point x="203" y="-191"/>
      <point x="261" y="-240"/>
    </contour>
    <contour>
      <point x="-18" y="0" type="line"/>
      <point x="202" y="0" type="line"/>
      <point x="389" y="478" type="line"/>
      <point x="314" y="478" type="line"/>
      <point x="497" y="0" type="line"/>
      <point x="720" y="0" type="line"/>
      <point x="464" y="582" type="line"/>
      <point x="238" y="582" type="line"/>
    </contour>
    <contour>
      <point x="148" y="90" type="line"/>
      <point x="517" y="90" type="line"/>
      <point x="459" y="244" type="line"/>
      <point x="206" y="244" type="line"/>
    </contour>
  </outline>
</glyph>
<glyph name="be-cy.loclSRB" format="2">
  <advance width="648"/>
  <guideline x="14" y="510" angle="90"/>
  <guideline x="634" y="510" angle="90"/>
  <outline>
    <contour>
      <point x="321" y="-16" type="curve" smooth="yes"/>
      <point x="503" y="-16"/>
      <point x="634" y="92"/>
      <point x="634" y="242" type="curve" smooth="yes"/>
      <point x="634" y="345"/>
      <point x="573" y="419"/>
      <point x="456" y="466" type="curve" smooth="yes"/>
      <point x="318" y="521"/>
      <point x="285" y="535"/>
      <point x="285" y="553" type="curve" smooth="yes"/>
      <point x="285" y="567"/>
      <point x="294" y="572"/>
      <point x="319" y="572" type="curve" smooth="yes"/>
      <point x="573" y="572" type="line"/>
      <point x="573" y="742" type="line"/>
      <point x="237" y="742" type="line" smooth="yes"/>
      <point x="127" y="742"/>
      <point x="60" y="690"/>
      <point x="60" y="605" type="curve" smooth="yes"/>
      <point x="60" y="520"/>
      <point x="127" y="451"/>
      <point x="269" y="400" type="curve"/>
      <point x="253" y="431" type="line"/>
      <point x="112" y="440"/>
      <point x="14" y="358"/>
      <point x="14" y="232" type="curve" smooth="yes"/>
      <point x="14" y="88"/>
      <point x="142" y="-16"/>
    </contour>
    <contour>
      <point x="324" y="151" type="curve" smooth="yes"/>
      <point x="272" y="151"/>
      <point x="237" y="183"/>
      <point x="237" y="232" type="curve" smooth="yes"/>
      <point x="237" y="281"/>
      <point x="273" y="314"/>
      <point x="324" y="314" type="curve" smooth="yes"/>
      <point x="375" y="314"/>
      <point x="411" y="281"/>
      <point x="411" y="232" type="curve" smooth="yes"/>
      <point x="411" y="183"/>
      <point x="376" y="151"/>
    </contour>
  </outline>
</glyph>
<glyph name="caroncomb.alt" format="2">
  <anchor x="300" y="700" name="_topright"/>
  <outline>
    <contour>
      <point x="300" y="540" type="line"/>
      <point x="428" y="540" type="line"/>
      <point x="458" y="750" type="line"/>
      <point x="300" y="750" type="line"/>
    </contour>
  </outline>
</glyph>
<glyph name="descTail-cy.case" format="2">
  <advance width="411"/>
  <anchor x="0" y="0" name="_bottomleft"/>
  <outline>
    <contour>
      <point x="62" y="-137" type="line"/>
      <point x="246" y="-137" type="line"/>
      <point x="336" y="183" type="line"/>
      <point x="0" y="183" type="line"/>
      <point x="0" y="0" type="line"/>
      <point x="171" y="0" type="line"/>
      <point x="90" y="51" type="line"/>
    </contour>
  </outline>
</glyph>
<glyph name="descTail-cy" format="2">
  <advance width="359"/>
  <anchor x="38" y="0" name="_bottomleft"/>
  <outline>
    <contour>
      <point x="86" y="-101" type="line"/>
      <point x="264" y="-101" type="line"/>
      <point x="344" y="177" type="line"/>
      <point x="38" y="177" type="line"/>
      <point x="38" y="0" type="line"/>
      <point x="250" y="0" type="line"/>
      <point x="112" y="48" type="line"/>
    </contour>
  </outline>
</glyph>
<glyph name="descender-cy.case" format="2">
  <advance width="406"/>
  <anchor x="31" y="0" name="_bottomleft"/>
  <outline>
    <contour>
      <point x="137" y="-137" type="line"/>
      <point x="353" y="-137" type="line"/>
      <point x="353" y="183" type="line"/>
      <point x="31" y="183" type="line"/>
      <point x="31" y="0" type="line"/>
      <point x="188" y="0" type="line"/>
      <point x="137" y="51" type="line"/>
    </contour>
  </outline>
</glyph>
<glyph name="dieresiscomb.narrow" format="2">
  <anchor x="300" y="547" name="_top"/>
  <anchor x="300" y="740" name="top"/>
  <outline>
    <contour>
      <point x="394" y="599" type="curve" smooth="yes"/>
      <point x="440" y="599"/>
      <point x="476" y="634"/>
      <point x="476" y="687" type="curve" smooth="yes"/>
      <point x="476" y="740"/>
      <point x="440" y="776"/>
      <point x="394" y="776" type="curve" smooth="yes"/>
      <point x="347" y="776"/>
      <point x="311" y="740"/>
      <point x="311" y="687" type="curve" smooth="yes"/>
      <point x="311" y="634"/>
      <point x="347" y="599"/>
    </contour>
    <contour>
      <point x="207" y="599" type="curve" smooth="yes"/>
      <point x="253" y="599"/>
      <point x="289" y="634"/>
      <point x="289" y="687" type="curve" smooth="yes"/>
      <point x="289" y="740"/>
      <point x="253" y="776"/>
      <point x="207" y="776" type="curve" smooth="yes"/>
      <point x="160" y="776"/>
      <point x="124" y="740"/>
      <point x="124" y="687" type="curve" smooth="yes"/>
      <point x="124" y="634"/>
      <point x="160" y="599"/>
    </contour>
  </outline>
</glyph>
<glyph name="dotaccentcomb.i" format="2">
  <anchor x="300" y="547" name="_top"/>
  <anchor x="300" y="796" name="top"/>
  <outline>
    <contour>
      <point x="300" y="591" type="curve" smooth="yes"/>
      <point x="383" y="591"/>
      <point x="436" y="641"/>
      <point x="436" y="710" type="curve" smooth="yes"/>
      <point x="436" y="775"/>
      <point x="383" y="821"/>
      <point x="300" y="821" type="curve" smooth="yes"/>
      <point x="217" y="821"/>
      <point x="164" y="771"/>
      <point x="164" y="706" type="curve" smooth="yes"/>
      <point x="164" y="641"/>
      <point x="217" y="591"/>
    </contour>
  </outline>
</glyph>
<glyph name="eng.sc.ss01" format="2">
  <advance width="701"/>
  <outline>
    <contour>
      <point x="434" y="597" type="curve" smooth="yes"/>
      <point x="342" y="597"/>
      <point x="273" y="555"/>
      <point x="236" y="480" type="curve"/>
      <point x="276" y="431" type="line"/>
      <point x="276" y="582" type="line"/>
      <point x="53" y="582" type="line"/>
      <point x="53" y="0" type="line"/>
      <point x="283" y="0" type="line"/>
      <point x="283" y="326" type="line" smooth="yes"/>
      <point x="283" y="391"/>
      <point x="321" y="417"/>
      <point x="359" y="417" type="curve" smooth="yes"/>
      <point x="396" y="417"/>
      <point x="423" y="394"/>
      <point x="423" y="331" type="curve" smooth="yes"/>
      <point x="423" y="65" type="line" smooth="yes"/>
      <point x="423" y="26"/>
      <point x="406" y="8"/>
      <point x="372" y="8" type="curve" smooth="yes"/>
      <point x="355" y="8"/>
      <point x="341" y="12"/>
      <point x="324" y="20" type="curve"/>
      <point x="239" y="-136" type="line"/>
      <point x="284" y="-160"/>
      <point x="330" y="-170"/>
      <point x="389" y="-170" type="curve" smooth="yes"/>
      <point x="562" y="-170"/>
      <point x="653" y="-79"/>
      <point x="653" y="88" type="curve" smooth="yes"/>
      <point x="653" y="346" type="line" smooth="yes"/>
      <point x="653" y="505"/>
      <point x="573" y="597"/>
    </contour>
  </outline>
</glyph>
<glyph name="eogonek.loclNAV" format="2">
  <advance width="653"/>
  <anchor x="327" y="0" name="bottom"/>
  <anchor x="553" y="0" name="ogonek"/>
  <anchor x="327" y="547" name="top"/>
  <outline>
    <contour>
      <point x="370" y="49" type="line"/>
      <point x="264" y="16"/>
      <point x="203" y="-43"/>
      <point x="203" y="-118" type="curve" smooth="yes"/>
      <point x="203" y="-192"/>
      <point x="262" y="-240"/>
      <point x="359" y="-240" type="curve" smooth="yes"/>
      <point x="404" y="-240"/>
      <point x="450" y="-230"/>
      <point x="474" y="-217" type="curve"/>
      <point x="447" y="-124" type="line"/>
      <point x="432" y="-131"/>
      <point x="410" y="-138"/>
      <point x="387" y="-138" type="curve" smooth="yes"/>
      <point x="351" y="-138"/>
      <point x="335" y="-121"/>
      <point x="335" y="-95" type="curve" smooth="yes"/>
      <point x="335" y="-53"/>
      <point x="375" y="-29"/>
      <point x="439" y="-7" type="curve" smooth="yes"/>
      <point x="500" y="14"/>
      <point x="545" y="33"/>
      <point x="591" y="78" type="curve"/>
      <point x="473" y="197" type="line"/>
      <point x="437" y="170"/>
      <point x="408" y="157"/>
      <point x="363" y="157" type="curve" smooth="yes"/>
      <point x="284" y="157"/>
      <point x="242" y="196"/>
      <point x="242" y="267" type="curve" smooth="yes"/>
      <point x="242" y="301" type="line" smooth="yes"/>
      <point x="242" y="364"/>
      <point x="277" y="403"/>
      <point x="333" y="403" type="curve" smooth="yes"/>
      <point x="388" y="403"/>
      <point x="424" y="364"/>
      <point x="424" y="301" type="curve"/>
      <point x="509" y="330" type="line"/>
      <point x="208" y="330" type="line"/>
      <point x="208" y="221" type="line"/>
      <point x="629" y="221" type="line"/>
      <point x="630" y="237"/>
      <point x="632" y="257"/>
      <point x="632" y="277" type="curve" smooth="yes"/>
      <point x="632" y="458"/>
      <point x="493" y="557"/>
      <point x="331" y="557" type="curve" smooth="yes"/>
      <point x="154" y="557"/>
      <point x="21" y="440"/>
      <point x="21" y="275" type="curve" smooth="yes"/>
      <point x="21" y="111"/>
      <point x="152" y="-10"/>
      <point x="348" y="-10" type="curve" smooth="yes"/>
      <point x="365" y="-10"/>
      <point x="393" y="-9"/>
      <point x="420" y="-5" type="curve"/>
    </contour>
  </outline>
</glyph>
<glyph name="er-cy.ss01" format="2">
  <advance width="678"/>
  <anchor x="399" y="0" name="bottom"/>
  <anchor x="347" y="547" name="top"/>
  <outline>
    <contour>
      <point x="358" y="557" type="curve" smooth="yes"/>
      <point x="162" y="557"/>
      <point x="35" y="445"/>
      <point x="35" y="271" type="curve" smooth="yes"/>
      <point x="35" y="-194" type="line"/>
      <point x="261" y="-194" type="line"/>
      <point x="261" y="137" type="line"/>
      <point x="208" y="125" type="line"/>
      <point x="248" y="28"/>
      <point x="301" y="-10"/>
      <point x="392" y="-10" type="curve" smooth="yes"/>
      <point x="552" y="-10"/>
      <point x="658" y="102"/>
      <point x="658" y="273" type="curve" smooth="yes"/>
      <point x="658" y="450"/>
      <point x="545" y="557"/>
    </contour>
    <contour>
      <point x="346" y="166" type="curve" smooth="yes"/>
      <point x="291" y="166"/>
      <point x="257" y="207"/>
      <point x="257" y="273" type="curve" smooth="yes"/>
      <point x="257" y="339"/>
      <point x="292" y="381"/>
      <point x="346" y="381" type="curve" smooth="yes"/>
      <point x="400" y="381"/>
      <point x="435" y="339"/>
      <point x="435" y="273" type="curve" smooth="yes"/>
      <point x="435" y="207"/>
      <point x="401" y="166"/>
    </contour>
  </outline>
</glyph>
<glyph name="germandbls.sc" format="2">
  <advance width="700"/>
  <outline>
    <contour>
      <point x="682" y="62"/>
      <point x="682" y="178" type="curve" smooth="yes"/>
      <point x="682" y="298"/>
      <point x="570" y="370"/>
      <point x="453" y="370" type="curve" smooth="yes"/>
      <point x="428" y="370"/>
      <point x="408" y="368"/>
      <point x="391" y="364" type="curve"/>
      <point x="477" y="249" type="line"/>
      <point x="618" y="416" type="line"/>
      <point x="618" y="543" type="line"/>
      <point x="560" y="577"/>
      <point x="460" y="597"/>
      <point x="385" y="597" type="curve" smooth="yes"/>
      <point x="168" y="597"/>
      <point x="48" y="486"/>
      <point x="48" y="310" type="curve" smooth="yes"/>
      <point x="48" y="0" type="line"/>
      <point x="278" y="0" type="line"/>
      <point x="278" y="306" type="line" smooth="yes"/>
      <point x="278" y="382"/>
      <point x="314" y="428"/>
      <point x="388" y="428" type="curve" smooth="yes"/>
      <point x="442" y="428"/>
      <point x="482" y="412"/>
      <point x="526" y="389" type="curve"/>
      <point x="511" y="529" type="line"/>
      <point x="316" y="300" type="line"/>
      <point x="355" y="214" type="line"/>
      <point x="368" y="218"/>
      <point x="385" y="222"/>
      <point x="403" y="222" type="curve" smooth="yes"/>
      <point x="437" y="222"/>
      <point x="452" y="210"/>
      <point x="452" y="188" type="curve" smooth="yes"/>
      <point x="452" y="166"/>
      <point x="437" y="154"/>
      <point x="400" y="154" type="curve" smooth="yes"/>
      <point x="377" y="154"/>
      <point x="352" y="160"/>
      <point x="334" y="169" type="curve"/>
      <point x="304" y="4" type="line"/>
      <point x="341" y="-8"/>
      <point x="385" y="-15"/>
      <point x="439" y="-15" type="curve" smooth="yes"/>
      <point x="592" y="-15"/>
    </contour>
  </outline>
</glyph>
<glyph name="gravecomb.loclVIET" format="2">
  <anchor x="300" y="547" name="_top"/>
  <anchor x="300" y="730" name="top"/>
  <outline>
    <contour>
      <point x="255" y="607" type="line"/>
      <point x="405" y="607" type="line"/>
      <point x="303" y="737" type="line"/>
      <point x="88" y="737" type="line"/>
    </contour>
  </outline>
</glyph>
<glyph name="guarani.BRACKET.179" format="2">
  <advance width="769"/>
  <outline>
    <contour>
      <point x="420" y="-16" type="curve" smooth="yes"/>
      <point x="523" y="-16"/>
      <point x="640" y="15"/>
      <point x="725" y="73" type="curve"/>
      <point x="593" y="235" type="line"/>
      <point x="536" y="191"/>
      <point x="487" y="175"/>
      <point x="434" y="175" type="curve" smooth="yes"/>
      <point x="333" y="175"/>
      <point x="267" y="245"/>
      <point x="267" y="350" type="curve" smooth="yes"/>
      <point x="267" y="458"/>
      <point x="333" y="525"/>
      <point x="437" y="525" type="curve" smooth="yes"/>
      <point x="499" y="525"/>
      <point x="550" y="499"/>
      <point x="594" y="448" type="curve"/>
      <point x="745" y="581" type="line"/>
      <point x="674" y="668"/>
      <point x="563" y="716"/>
      <point x="425" y="716" type="curve" smooth="yes"/>
      <point x="194" y="716"/>
      <point x="29" y="565"/>
      <point x="29" y="350" type="curve" smooth="yes"/>
      <point x="29" y="135"/>
      <point x="194" y="-16"/>
    </contour>
    <contour>
      <point x="352" y="-120" type="line"/>
      <point x="493" y="-120" type="line"/>
      <point x="493" y="10" type="line"/>
      <point x="352" y="10" type="line"/>
    </contour>
    <contour>
      <point x="725" y="73" type="line"/>
      <point x="725" y="369" type="line"/>
      <point x="520" y="369" type="line"/>
      <point x="520" y="103" type="line"/>
    </contour>
    <contour>
      <point x="352" y="690" type="line"/>
      <point x="493" y="690" type="line"/>
      <point x="493" y="820" type="line"/>
      <point x="352" y="820" type="line"/>
    </contour>
  </outline>
</glyph>
<glyph name="hardsign-cy.loclBGR" format="2">
  <advance width="758"/>
  <outline>
    <contour>
      <point x="189" y="371" type="line"/>
      <point x="394" y="547" type="line"/>
      <point x="12" y="547" type="line"/>
      <point x="12" y="371" type="line"/>
    </contour>
    <component base="softsign-cy.loclBGR" xOffset="127"/>
  </outline>
</glyph>
<glyph name="numero.ss01" format="2">
  <advance width="1229"/>
  <outline>
    <contour>
      <point x="813" y="192" type="line"/>
      <point x="1179" y="192" type="line"/>
      <point x="1179" y="322" type="line"/>
      <point x="813" y="322" type="line"/>
    </contour>
    <contour>
      <point x="996" y="372" type="curve" smooth="yes"/>
      <point x="1115" y="372"/>
      <point x="1199" y="442"/>
      <point x="1199" y="541" type="curve" smooth="yes"/>
      <point x="1199" y="640"/>
      <point x="1115" y="710"/>
      <point x="996" y="710" type="curve" smooth="yes"/>
      <point x="878" y="710"/>
      <point x="793" y="640"/>
      <point x="793" y="541" type="curve" smooth="yes"/>
      <point x="793" y="442"/>
      <point x="878" y="372"/>
    </contour>
    <contour>
      <point x="996" y="482" type="curve" smooth="yes"/>
      <point x="967" y="482"/>
      <point x="944" y="502"/>
      <point x="944" y="541" type="curve" smooth="yes"/>
      <point x="944" y="581"/>
      <point x="967" y="600"/>
      <point x="996" y="600" type="curve" smooth="yes"/>
      <point x="1025" y="600"/>
      <point x="1048" y="581"/>
      <point x="1048" y="541" type="curve" smooth="yes"/>
      <point x="1048" y="502"/>
      <point x="1025" y="482"/>
    </contour>
    <contour>
      <point x="482" y="716" type="curve" smooth="yes"/>
      <point x="370" y="716"/>
      <point x="291" y="659"/>
      <point x="250" y="563" type="curve"/>
      <point x="286" y="519" type="line"/>
      <point x="286" y="700" type="line"/>
      <point x="57" y="700" type="line"/>
      <point x="57" y="0" type="line"/>
      <point x="293" y="0" type="line"/>
      <point x="293" y="390" type="line" smooth="yes"/>
      <point x="293" y="483"/>
      <point x="342" y="525"/>
      <point x="403" y="525" type="curve" smooth="yes"/>
      <point x="466" y="525"/>
      <point x="507" y="486"/>
      <point x="507" y="398" type="curve" smooth="yes"/>
      <point x="507" y="0" type="line"/>
      <point x="743" y="0" type="line"/>
      <point x="743" y="405" type="line" smooth="yes"/>
      <point x="743" y="605"/>
      <point x="647" y="716"/>
    </contour>
  </outline>
</glyph>
<glyph name="one.osf" format="2">
  <advance width="418"/>
  <outline>
    <contour>
      <point x="125" y="0" type="line"/>
      <point x="361" y="0" type="line"/>
      <point x="361" y="600" type="line"/>
      <point x="5" y="600" type="line"/>
      <point x="5" y="422" type="line"/>
      <point x="226" y="422" type="line"/>
      <point x="125" y="518" type="line"/>
    </contour>
  </outline>
</glyph>
<glyph name="one.tf" format="2">
  <advance width="700"/>
  <outline>
    <contour>
      <point x="494" y="72" type="line"/>
      <point x="494" y="700" type="line"/>
      <point x="133" y="700" type="line"/>
      <point x="133" y="522" type="line"/>
      <point x="359" y="522" type="line"/>
      <point x="258" y="618" type="line"/>
      <point x="258" y="72" type="line"/>
      <point x="364" y="178" type="line"/>
      <point x="118" y="178" type="line"/>
      <point x="118" y="0" type="line"/>
      <point x="614" y="0" type="line"/>
      <point x="614" y="178" type="line"/>
      <point x="388" y="178" type="line"/>
    </contour>
  </outline>
</glyph>
<glyph name="oogonek.sc" format="2">
  <advance width="727"/>
  <anchor x="364" y="582" name="top"/>
  <outline>
    <contour>
      <point x="397" y="-240" type="curve" smooth="yes"/>
      <point x="440" y="-240"/>
      <point x="486" y="-230"/>
      <point x="510" y="-217" type="curve"/>
      <point x="483" y="-124" type="line"/>
      <point x="468" y="-131"/>
      <point x="446" y="-138"/>
      <point x="424" y="-138" type="curve" smooth="yes"/>
      <point x="387" y="-138"/>
      <point x="371" y="-118"/>
      <point x="371" y="-96" type="curve" smooth="yes"/>
      <point x="371" y="-57"/>
      <point x="402" y="-26"/>
      <point x="490" y="4" type="curve" smooth="yes"/>
      <point x="613" y="46"/>
      <point x="703" y="150"/>
      <point x="703" y="291" type="curve" smooth="yes"/>
      <point x="703" y="468"/>
      <point x="560" y="597"/>
      <point x="364" y="597" type="curve" smooth="yes"/>
      <point x="167" y="597"/>
      <point x="24" y="468"/>
      <point x="24" y="291" type="curve" smooth="yes"/>
      <point x="24" y="113"/>
      <point x="167" y="-15"/>
      <point x="364" y="-15" type="curve" smooth="yes"/>
      <point x="377" y="-15"/>
      <point x="392" y="-14"/>
      <point x="416" y="-12" type="curve"/>
      <point x="406" y="39" type="line"/>
      <point x="300" y="16"/>
      <point x="239" y="-43"/>
      <point x="239" y="-117" type="curve" smooth="yes"/>
      <point x="239" y="-192"/>
      <point x="297" y="-240"/>
    </contour>
    <contour>
      <point x="364" y="165" type="curve" smooth="yes"/>
      <point x="301" y="165"/>
      <point x="256" y="217"/>
      <point x="256" y="291" type="curve" smooth="yes"/>
      <point x="256" y="365"/>
      <point x="301" y="417"/>
      <point x="364" y="417" type="curve" smooth="yes"/>
      <point x="427" y="417"/>
      <point x="471" y="365"/>
      <point x="471" y="291" type="curve" smooth="yes"/>
      <point x="471" y="217"/>
      <point x="427" y="165"/>
    </contour>
  </outline>
</glyph>
<glyph name="periodcentered.loclCAT.sc" format="2">
  <advance width="225"/>
  <anchor x="113" y="374" name="_center"/>
  <anchor x="113" y="473" name="top"/>
  <outline>
    <contour>
      <point x="113" y="270" type="curve" smooth="yes"/>
      <point x="180" y="270"/>
      <point x="227" y="317"/>
      <point x="227" y="384" type="curve" smooth="yes"/>
      <point x="227" y="451"/>
      <point x="180" y="498"/>
      <point x="113" y="498" type="curve" smooth="yes"/>
      <point x="46" y="498"/>
      <point x="-1" y="451"/>
      <point x="-1" y="384" type="curve" smooth="yes"/>
      <point x="-1" y="317"/>
      <point x="46" y="270"/>
    </contour>
  </outline>
</glyph>
<glyph name="q.sc" format="2">
  <advance width="727"/>
  <anchor x="365" y="582" name="top"/>
  <outline>
    <contour>
      <point x="364" y="-15" type="curve" smooth="yes"/>
      <point x="560" y="-15"/>
      <point x="703" y="114"/>
      <point x="703" y="291" type="curve" smooth="yes"/>
      <point x="703" y="468"/>
      <point x="560" y="597"/>
      <point x="364" y="597" type="curve" smooth="yes"/>
      <point x="168" y="597"/>
      <point x="24" y="468"/>
      <point x="24" y="291" type="curve" smooth="yes"/>
      <point x="24" y="114"/>
      <point x="168" y="-15"/>
    </contour>
    <contour>
      <point x="557" y="-154" type="curve" smooth="yes"/>
      <point x="631" y="-154"/>
      <point x="693" y="-127"/>
      <point x="736" y="-78" type="curve"/>
      <point x="637" y="35" type="line"/>
      <point x="614" y="13"/>
      <point x="587" y="1"/>
      <point x="562" y="1" type="curve" smooth="yes"/>
      <point x="529" y="1"/>
      <point x="516" y="14"/>
      <point x="479" y="75" type="curve"/>
      <point x="242" y="19" type="line"/>
      <point x="369" y="-116"/>
      <point x="437" y="-154"/>
    </contour>
    <contour>
      <point x="364" y="165" type="curve" smooth="yes"/>
      <point x="301" y="165"/>
      <point x="256" y="217"/>
      <point x="256" y="291" type="curve" smooth="yes"/>
      <point x="256" y="365"/>
      <point x="301" y="417"/>
      <point x="364" y="417" type="curve" smooth="yes"/>
      <point x="427" y="417"/>
      <point x="471" y="365"/>
      <point x="471" y="291" type="curve" smooth="yes"/>
      <point x="471" y="217"/>
      <point x="427" y="165"/>
    </contour>
  </outline>
</glyph>
<glyph name="quoteright.sc" format="2">
  <advance width="304"/>
  <outline>
    <contour>
      <point x="49" y="230" type="line"/>
      <point x="189" y="230" type="line"/>
      <point x="245" y="343" type="line" smooth="yes"/>
      <point x="282" y="417"/>
      <point x="284" y="442"/>
      <point x="284" y="469" type="curve" smooth="yes"/>
      <point x="284" y="542"/>
      <point x="228" y="592"/>
      <point x="152" y="592" type="curve" smooth="yes"/>
      <point x="76" y="592"/>
      <point x="20" y="542"/>
      <point x="20" y="469" type="curve" smooth="yes"/>
      <point x="20" y="396"/>
      <point x="74" y="349"/>
      <point x="152" y="349" type="curve"/>
      <point x="119" y="475" type="line"/>
    </contour>
  </outline>
</glyph>
<glyph name="quotesingle.sc" format="2">
  <advance width="254"/>
  <outline>
    <contour>
      <point x="47" y="322" type="line"/>
      <point x="207" y="322" type="line"/>
      <point x="222" y="582" type="line"/>
      <point x="32" y="582" type="line"/>
    </contour>
  </outline>
</glyph>
<glyph name="ringcomb_acutecomb" format="2">
  <anchor x="300" y="547" name="_top"/>
  <anchor x="300" y="830" name="top"/>
  <outline>
    <contour>
      <point x="300" y="590" type="curve" smooth="yes"/>
      <point x="379" y="590"/>
      <point x="440" y="649"/>
      <point x="440" y="724" type="curve" smooth="yes"/>
      <point x="440" y="799"/>
      <point x="379" y="858"/>
      <point x="300" y="858" type="curve" smooth="yes"/>
      <point x="221" y="858"/>
      <point x="160" y="799"/>
      <point x="160" y="724" type="curve" smooth="yes"/>
      <point x="160" y="649"/>
      <point x="221" y="590"/>
    </contour>
    <contour>
      <point x="300" y="670" type="curve" smooth="yes"/>
      <point x="270" y="670"/>
      <point x="246" y="692"/>
      <point x="246" y="724" type="curve" smooth="yes"/>
      <point x="246" y="756"/>
      <point x="270" y="778"/>
      <point x="300" y="778" type="curve" smooth="yes"/>
      <point x="330" y="778"/>
      <point x="354" y="756"/>
      <point x="354" y="724" type="curve" smooth="yes"/>
      <point x="354" y="692"/>
      <point x="330" y="670"/>
    </contour>
    <contour>
      <point x="405" y="774" type="line"/>
      <point x="548" y="867" type="line"/>
      <point x="439" y="948" type="line"/>
      <point x="303" y="805" type="line"/>
    </contour>
  </outline>
</glyph>
<glyph name="s.sc" format="2">
  <advance width="574"/>
  <anchor x="288" y="0" name="bottom"/>
  <anchor x="288" y="582" name="top"/>
  <outline>
    <contour>
      <point x="567" y="78"/>
      <point x="567" y="189" type="curve" smooth="yes"/>
      <point x="567" y="404"/>
      <point x="246" y="353"/>
      <point x="246" y="406" type="curve" smooth="yes"/>
      <point x="246" y="420"/>
      <point x="265" y="430"/>
      <point x="305" y="430" type="curve" smooth="yes"/>
      <point x="359" y="430"/>
      <point x="417" y="417"/>
      <point x="473" y="385" type="curve"/>
      <point x="541" y="546" type="line"/>
      <point x="477" y="581"/>
      <point x="392" y="597"/>
      <point x="313" y="597" type="curve" smooth="yes"/>
      <point x="128" y="597"/>
      <point x="21" y="506"/>
      <point x="21" y="395" type="curve" smooth="yes"/>
      <point x="21" y="174"/>
      <point x="342" y="229"/>
      <point x="342" y="171" type="curve" smooth="yes"/>
      <point x="342" y="161"/>
      <point x="329" y="152"/>
      <point x="288" y="152" type="curve" smooth="yes"/>
      <point x="218" y="152"/>
      <point x="145" y="171"/>
      <point x="86" y="204" type="curve"/>
      <point x="13" y="42" type="line"/>
      <point x="75" y="8"/>
      <point x="178" y="-15"/>
      <point x="275" y="-15" type="curve" smooth="yes"/>
      <point x="470" y="-15"/>
    </contour>
  </outline>
</glyph>
<glyph name="slash.case" format="2">
  <advance width="440"/>
  <outline>
    <contour>
      <point x="-40" y="-100" type="line"/>
      <point x="160" y="-100" type="line"/>
      <point x="490" y="842" type="line"/>
      <point x="290" y="842" type="line"/>
    </contour>
  </outline>
</glyph>
<glyph name="t.sc" format="2">
  <advance width="568"/>
  <anchor x="284" y="0" name="bottom"/>
  <anchor x="284" y="257" name="center"/>
  <anchor x="284" y="582" name="top"/>
  <outline>
    <contour>
      <point x="169" y="0" type="line"/>
      <point x="399" y="0" type="line"/>
      <point x="399" y="412" type="line"/>
      <point x="565" y="412" type="line"/>
      <point x="565" y="582" type="line"/>
      <point x="3" y="582" type="line"/>
      <point x="3" y="412" type="line"/>
      <point x="169" y="412" type="line"/>
    </contour>
  </outline>
</glyph>
<glyph name="tildecomb.loclVIET" format="2">
  <anchor x="300" y="547" name="_top"/>
  <anchor x="300" y="730" name="top"/>
  <outline>
    <contour>
      <point x="376" y="597" type="curve" smooth="yes"/>
      <point x="466" y="597"/>
      <point x="514" y="654"/>
      <point x="514" y="746" type="curve"/>
      <point x="407" y="746" type="line"/>
      <point x="405" y="724"/>
      <point x="389" y="705"/>
      <point x="364" y="705" type="curve" smooth="yes"/>
      <point x="335" y="705"/>
      <point x="296" y="755"/>
      <point x="224" y="755" type="curve" smooth="yes"/>
      <point x="138" y="755"/>
      <point x="86" y="701"/>
      <point x="86" y="606" type="curve"/>
      <point x="196" y="606" type="line"/>
      <point x="198" y="630"/>
      <point x="215" y="647"/>
      <point x="238" y="647" type="curve" smooth="yes"/>
      <point x="266" y="647"/>
      <point x="304" y="597"/>
    </contour>
  </outline>
</glyph>
<glyph name="two.tf" format="2">
  <advance width="700"/>
  <outline>
    <contour>
      <point x="71" y="0" type="line"/>
      <point x="636" y="0" type="line"/>
      <point x="636" y="183" type="line"/>
      <point x="269" y="183" type="line"/>
      <point x="306" y="101" type="line"/>
      <point x="492" y="274" type="line" smooth="yes"/>
      <point x="595" y="369"/>
      <point x="619" y="428"/>
      <point x="619" y="496" type="curve" smooth="yes"/>
      <point x="619" y="630"/>
      <point x="501" y="716"/>
      <point x="331" y="716" type="curve" smooth="yes"/>
      <point x="170" y="716"/>
      <point x="72" y="648"/>
      <point x="26" y="554" type="curve"/>
      <point x="200" y="465" type="line"/>
      <point x="222" y="506"/>
      <point x="261" y="530"/>
      <point x="311" y="530" type="curve" smooth="yes"/>
      <point x="355" y="530"/>
      <point x="382" y="510"/>
      <point x="382" y="478" type="curve" smooth="yes"/>
      <point x="382" y="453"/>
      <point x="372" y="425"/>
      <point x="322" y="379" type="curve" smooth="yes"/>
      <point x="71" y="145" type="line"/>
    </contour>
  </outline>
</glyph>
<glyph name="u.sc" format="2">
  <advance width="693"/>
  <anchor x="349" y="0" name="bottom"/>
  <anchor x="546" y="0" name="ogonek"/>
  <anchor x="349" y="582" name="top"/>
  <anchor x="553" y="582" name="topright"/>
  <outline>
    <contour>
      <point x="347" y="-15" type="curve" smooth="yes"/>
      <point x="536" y="-15"/>
      <point x="645" y="92"/>
      <point x="645" y="254" type="curve" smooth="yes"/>
      <point x="645" y="582" type="line"/>
      <point x="419" y="582" type="line"/>
      <point x="419" y="261" type="line" smooth="yes"/>
      <point x="419" y="197"/>
      <point x="396" y="165"/>
      <point x="349" y="165" type="curve" smooth="yes"/>
      <point x="302" y="165"/>
      <point x="278" y="197"/>
      <point x="278" y="261" type="curve" smooth="yes"/>
      <point x="278" y="582" type="line"/>
      <point x="48" y="582" type="line"/>
      <point x="48" y="254" type="line" smooth="yes"/>
      <point x="48" y="92"/>
      <point x="158" y="-15"/>
    </contour>
  </outline>
</glyph>
<glyph name="uogonek.loclNAV" format="2">
  <advance width="698"/>
  <anchor x="348" y="0" name="bottom"/>
  <anchor x="648" y="0" name="ogonek"/>
  <anchor x="348" y="547" name="top"/>
  <anchor x="535" y="547" name="topright"/>
  <outline>
    <contour>
      <point x="379" y="-240" type="curve" smooth="yes"/>
      <point x="423" y="-240"/>
      <point x="469" y="-230"/>
      <point x="493" y="-217" type="curve"/>
      <point x="466" y="-124" type="line"/>
      <point x="451" y="-131"/>
      <point x="429" y="-138"/>
      <point x="407" y="-138" type="curve" smooth="yes"/>
      <point x="370" y="-138"/>
      <point x="354" y="-120"/>
      <point x="354" y="-88" type="curve" smooth="yes"/>
      <point x="354" y="-53"/>
      <point x="374" y="-28"/>
      <point x="440" y="52" type="curve" smooth="yes"/>
      <point x="456" y="72"/>
      <point x="466" y="93"/>
      <point x="476" y="115" type="curve"/>
      <point x="433" y="158" type="line"/>
      <point x="433" y="0" type="line"/>
      <point x="648" y="0" type="line"/>
      <point x="648" y="547" type="line"/>
      <point x="422" y="547" type="line"/>
      <point x="422" y="290" type="line" smooth="yes"/>
      <point x="422" y="209"/>
      <point x="385" y="180"/>
      <point x="342" y="180" type="curve" smooth="yes"/>
      <point x="301" y="180"/>
      <point x="274" y="207"/>
      <point x="274" y="284" type="curve" smooth="yes"/>
      <point x="274" y="547" type="line"/>
      <point x="48" y="547" type="line"/>
      <point x="48" y="245" type="line" smooth="yes"/>
      <point x="48" y="67"/>
      <point x="147" y="-10"/>
      <point x="278" y="-10" type="curve" smooth="yes"/>
      <point x="322" y="-10"/>
      <point x="374" y="0"/>
      <point x="397" y="14" type="curve"/>
      <point x="385" y="76" type="line"/>
      <point x="280" y="17"/>
      <point x="222" y="-46"/>
      <point x="222" y="-119" type="curve" smooth="yes"/>
      <point x="222" y="-191"/>
      <point x="280" y="-240"/>
    </contour>
  </outline>
</glyph>
<glyph name="z.ss01" format="2">
  <advance width="580"/>
  <anchor x="290" y="0" name="bottom"/>
  <anchor x="290" y="547" name="top"/>
  <outline>
    <contour>
      <point x="35" y="0" type="line"/>
      <point x="557" y="0" type="line"/>
      <point x="557" y="165" type="line"/>
      <point x="218" y="165" type="line"/>
      <point x="255" y="93" type="line"/>
      <point x="546" y="417" type="line"/>
      <point x="546" y="547" type="line"/>
      <point x="43" y="547" type="line"/>
      <point x="43" y="382" type="line"/>
      <point x="363" y="382" type="line"/>
      <point x="326" y="454" type="line"/>
      <point x="35" y="130" type="line"/>
    </contour>
    <contour>
      <point x="319" y="209" type="line"/>
      <point x="527" y="209" type="line"/>
      <point x="527" y="342" type="line"/>
      <point x="372" y="342" type="line"/>
      <point x="313" y="343" type="line"/>
      <point x="63" y="343" type="line"/>
      <point x="63" y="210" type="line"/>
      <point x="260" y="210" type="line"/>
    </contour>
  </outline>
</glyph>
